<?xml version="1.0" encoding="UTF-8" standalone="no"?>
<svg
   xmlns:ooo="http://xml.openoffice.org/svg/export"
   xmlns:dc="http://purl.org/dc/elements/1.1/"
   xmlns:cc="http://creativecommons.org/ns#"
   xmlns:rdf="http://www.w3.org/1999/02/22-rdf-syntax-ns#"
   xmlns:svg="http://www.w3.org/2000/svg"
   xmlns="http://www.w3.org/2000/svg"
   xmlns:sodipodi="http://sodipodi.sourceforge.net/DTD/sodipodi-0.dtd"
   xmlns:inkscape="http://www.inkscape.org/namespaces/inkscape"
   version="1.2"
   width="108.23222mm"
   height="106.96222mm"
   viewBox="0 0 10823.223 10696.222"
   preserveAspectRatio="xMidYMid"
   xml:space="preserve"
   id="svg945"
   sodipodi:docname="complexity-bad.svg"
   style="fill-rule:evenodd;stroke-width:28.22200012;stroke-linejoin:round"
   inkscape:version="0.92.1 r"><metadata
     id="metadata949"><rdf:RDF><cc:Work
         rdf:about=""><dc:format>image/svg+xml</dc:format><dc:type
           rdf:resource="http://purl.org/dc/dcmitype/StillImage" /></cc:Work></rdf:RDF></metadata><sodipodi:namedview
     pagecolor="#ffffff"
     bordercolor="#666666"
     borderopacity="1"
     objecttolerance="10"
     gridtolerance="10"
     guidetolerance="10"
     inkscape:pageopacity="0"
     inkscape:pageshadow="2"
     inkscape:window-width="2560"
     inkscape:window-height="1391"
     id="namedview947"
     showgrid="false"
     inkscape:zoom="0.22348485"
     inkscape:cx="-967.65126"
     inkscape:cy="115.12862"
     inkscape:window-x="0"
     inkscape:window-y="49"
     inkscape:window-maximized="0"
     inkscape:current-layer="svg945" /><defs
     class="ClipPathGroup"
     id="defs802"><clipPath
       id="presentation_clip_path"
       clipPathUnits="userSpaceOnUse"><rect
         x="0"
         y="0"
         width="21590"
         height="27940"
         id="rect796" /></clipPath><clipPath
       id="presentation_clip_path_shrink"
       clipPathUnits="userSpaceOnUse"><rect
         x="21"
         y="27"
         width="21547"
         height="27885"
         id="rect799" /></clipPath></defs><defs
     class="TextShapeIndex"
     id="defs806"><g
       ooo:slide="id1"
       ooo:id-list="id3 id4 id5 id6 id7 id8 id9 id10"
       id="g804" /></defs><defs
     class="EmbeddedBulletChars"
     id="defs838"><g
       id="bullet-char-template(57356)"
       transform="matrix(4.8828125e-4,0,0,-4.8828125e-4,0,0)"><path
         d="M 580,1141 1163,571 580,0 -4,571 Z"
         id="path808"
         inkscape:connector-curvature="0" /></g><g
       id="bullet-char-template(57354)"
       transform="matrix(4.8828125e-4,0,0,-4.8828125e-4,0,0)"><path
         d="M 8,1128 H 1137 V 0 H 8 Z"
         id="path811"
         inkscape:connector-curvature="0" /></g><g
       id="bullet-char-template(10146)"
       transform="matrix(4.8828125e-4,0,0,-4.8828125e-4,0,0)"><path
         d="M 174,0 602,739 174,1481 1456,739 Z M 1358,739 309,1346 659,739 Z"
         id="path814"
         inkscape:connector-curvature="0" /></g><g
       id="bullet-char-template(10132)"
       transform="matrix(4.8828125e-4,0,0,-4.8828125e-4,0,0)"><path
         d="M 2015,739 1276,0 H 717 l 543,543 H 174 v 393 h 1086 l -543,545 h 557 z"
         id="path817"
         inkscape:connector-curvature="0" /></g><g
       id="bullet-char-template(10007)"
       transform="matrix(4.8828125e-4,0,0,-4.8828125e-4,0,0)"><path
         d="m 0,-2 c -7,16 -16,29 -25,39 l 381,530 c -94,256 -141,385 -141,387 0,25 13,38 40,38 9,0 21,-2 34,-5 21,4 42,12 65,25 l 27,-13 111,-251 280,301 64,-25 24,25 c 21,-10 41,-24 62,-43 C 886,937 835,863 770,784 769,783 710,716 594,584 L 774,223 c 0,-27 -21,-55 -63,-84 l 16,-20 C 717,90 699,76 672,76 641,76 570,178 457,381 L 164,-76 c -22,-34 -53,-51 -92,-51 -42,0 -63,17 -64,51 -7,9 -10,24 -10,44 0,9 1,19 2,30 z"
         id="path820"
         inkscape:connector-curvature="0" /></g><g
       id="bullet-char-template(10004)"
       transform="matrix(4.8828125e-4,0,0,-4.8828125e-4,0,0)"><path
         d="M 285,-33 C 182,-33 111,30 74,156 52,228 41,333 41,471 c 0,78 14,145 41,201 34,71 87,106 158,106 53,0 88,-31 106,-94 l 23,-176 c 8,-64 28,-97 59,-98 l 735,706 c 11,11 33,17 66,17 42,0 63,-15 63,-46 V 965 c 0,-36 -10,-64 -30,-84 L 442,47 C 390,-6 338,-33 285,-33 Z"
         id="path823"
         inkscape:connector-curvature="0" /></g><g
       id="bullet-char-template(9679)"
       transform="matrix(4.8828125e-4,0,0,-4.8828125e-4,0,0)"><path
         d="M 813,0 C 632,0 489,54 383,161 276,268 223,411 223,592 c 0,181 53,324 160,431 106,107 249,161 430,161 179,0 323,-54 432,-161 108,-107 162,-251 162,-431 0,-180 -54,-324 -162,-431 C 1136,54 992,0 813,0 Z"
         id="path826"
         inkscape:connector-curvature="0" /></g><g
       id="bullet-char-template(8226)"
       transform="matrix(4.8828125e-4,0,0,-4.8828125e-4,0,0)"><path
         d="m 346,457 c -73,0 -137,26 -191,78 -54,51 -81,114 -81,188 0,73 27,136 81,188 54,52 118,78 191,78 73,0 134,-26 185,-79 51,-51 77,-114 77,-187 0,-75 -25,-137 -76,-188 -50,-52 -112,-78 -186,-78 z"
         id="path829"
         inkscape:connector-curvature="0" /></g><g
       id="bullet-char-template(8211)"
       transform="matrix(4.8828125e-4,0,0,-4.8828125e-4,0,0)"><path
         d="M -4,459 H 1135 V 606 H -4 Z"
         id="path832"
         inkscape:connector-curvature="0" /></g><g
       id="bullet-char-template(61548)"
       transform="matrix(4.8828125e-4,0,0,-4.8828125e-4,0,0)"><path
         d="m 173,740 c 0,163 58,303 173,419 116,115 255,173 419,173 163,0 302,-58 418,-173 116,-116 174,-256 174,-419 0,-163 -58,-303 -174,-418 C 1067,206 928,148 765,148 601,148 462,206 346,322 231,437 173,577 173,740 Z"
         id="path835"
         inkscape:connector-curvature="0" /></g></defs><defs
     class="TextEmbeddedBitmaps"
     id="defs840" /><g
     id="g845"
     transform="translate(-5556.889,-6319.889)"><g
       id="id2"
       class="Master_Slide"><g
         id="bg-id2"
         class="Background" /><g
         id="bo-id2"
         class="BackgroundObjects" /></g></g><g
     class="SlideGroup"
     id="g943"
     transform="translate(-5556.889,-6319.889)"><g
       id="g941"><g
         id="container-id1"><g
           id="id1"
           class="Slide"
           clip-path="url(#presentation_clip_path)"><g
             class="Page"
             id="g937"><g
               class="com.sun.star.drawing.CustomShape"
               id="g858"><g
                 id="id3"><rect
                   class="BoundingBox"
                   x="5570"
                   y="6333"
                   width="10799"
                   height="10672"
                   id="rect847"
                   style="fill:none;stroke:none" /><path
                   d="m 10968,6334 c 3060,0 5398,2310 5398,5334 0,3024 -2338,5334 -5398,5334 -3060,0 -5397,-2310 -5397,-5334 0,-3024 2337,-5334 5397,-5334 z m -5397,0 z m 10796,10669 z"
                   id="path849"
                   inkscape:connector-curvature="0"
                   style="fill:#adadad;stroke:none" /><path
                   d="m 10968,6334 c 3060,0 5398,2310 5398,5334 0,3024 -2338,5334 -5398,5334 -3060,0 -5397,-2310 -5397,-5334 0,-3024 2337,-5334 5397,-5334 z"
                   id="path851"
                   inkscape:connector-curvature="0"
                   style="fill:none;stroke:#adadad" /><path
                   d="M 5571,6334 Z"
                   id="path853"
                   inkscape:connector-curvature="0"
                   style="fill:none;stroke:#adadad" /><path
                   d="M 16367,17003 Z"
                   id="path855"
                   inkscape:connector-curvature="0"
                   style="fill:none;stroke:#adadad" /></g></g><g
               class="com.sun.star.drawing.EllipseShape"
               id="g867"><g
                 id="id4"><rect
                   class="BoundingBox"
                   x="7603"
                   y="10524"
                   width="3559"
                   height="4575"
                   id="rect860"
                   style="fill:none;stroke:none" /><path
                   d="m 7604,15097 c 0,-16 0,-30 0,-45 0,-834 75,-1542 238,-2264 164,-721 368,-1240 651,-1657 283,-416 562,-606 889,-606 327,0 606,190 889,606 283,417 487,936 651,1657 163,722 238,1430 238,2264 0,10 0,19 0,30 z"
                   id="path862"
                   inkscape:connector-curvature="0"
                   style="fill:#eeeeee;stroke:none" /><path
                   d="m 7604,15097 c 0,-16 0,-30 0,-45 0,-834 75,-1542 238,-2264 164,-721 368,-1240 651,-1657 283,-416 562,-606 889,-606 327,0 606,190 889,606 283,417 487,936 651,1657 163,722 238,1430 238,2264 0,10 0,19 0,30 z"
                   id="path864"
                   inkscape:connector-curvature="0"
                   style="fill:none;stroke:#adadad" /></g></g><g
               class="com.sun.star.drawing.CustomShape"
               id="g880"><g
                 id="id5"><rect
                   class="BoundingBox"
                   x="8364"
                   y="8618"
                   width="2163"
                   height="2163"
                   id="rect869"
                   style="fill:none;stroke:none" /><path
                   d="m 9444,8619 c 612,0 1080,467 1080,1079 0,612 -468,1080 -1080,1080 -612,0 -1079,-468 -1079,-1080 0,-612 467,-1079 1079,-1079 z m -1079,0 z m 2160,2160 z"
                   id="path871"
                   inkscape:connector-curvature="0"
                   style="fill:#eeeeee;stroke:none" /><path
                   d="m 9444,8619 c 612,0 1080,467 1080,1079 0,612 -468,1080 -1080,1080 -612,0 -1079,-468 -1079,-1080 0,-612 467,-1079 1079,-1079 z"
                   id="path873"
                   inkscape:connector-curvature="0"
                   style="fill:none;stroke:#adadad" /><path
                   d="M 8365,8619 Z"
                   id="path875"
                   inkscape:connector-curvature="0"
                   style="fill:none;stroke:#adadad" /><path
                   d="M 10525,10779 Z"
                   id="path877"
                   inkscape:connector-curvature="0"
                   style="fill:none;stroke:#adadad" /></g></g><g
               class="com.sun.star.drawing.CustomShape"
               id="g889"><g
                 id="id6"><rect
                   class="BoundingBox"
                   x="12302"
                   y="9127"
                   width="511"
                   height="1019"
                   id="rect882"
                   style="fill:none;stroke:none" /><path
                   d="m 12557,10144 h -254 V 9128 h 508 v 1016 z"
                   id="path884"
                   inkscape:connector-curvature="0"
                   style="fill:#eeeeee;stroke:none" /><path
                   d="m 12557,10144 h -254 V 9128 h 508 v 1016 z"
                   id="path886"
                   inkscape:connector-curvature="0"
                   style="fill:none;stroke:#adadad" /></g></g><g
               class="com.sun.star.drawing.CustomShape"
               id="g904"><g
                 id="id7"><rect
                   class="BoundingBox"
                   x="11666"
                   y="7856"
                   width="1655"
                   height="1655"
                   id="rect891"
                   style="fill:none;stroke:none" /><path
                   d="m 12492,7857 c 468,0 826,357 826,825 0,468 -358,826 -826,826 -468,0 -825,-358 -825,-826 0,-468 357,-825 825,-825 z m 0,413 c 234,0 413,178 413,412 0,234 -179,413 -413,413 -234,0 -412,-179 -412,-413 0,-234 178,-412 412,-412 z m -825,-413 z m 1652,1652 z"
                   id="path893"
                   inkscape:connector-curvature="0"
                   style="fill:#eeeeee;stroke:none" /><path
                   d="m 12492,7857 c 468,0 826,357 826,825 0,468 -358,826 -826,826 -468,0 -825,-358 -825,-826 0,-468 357,-825 825,-825 z"
                   id="path895"
                   inkscape:connector-curvature="0"
                   style="fill:none;stroke:#eeeeee" /><path
                   d="m 12492,8270 c 234,0 413,178 413,412 0,234 -179,413 -413,413 -234,0 -412,-179 -412,-413 0,-234 178,-412 412,-412 z"
                   id="path897"
                   inkscape:connector-curvature="0"
                   style="fill:none;stroke:#eeeeee" /><path
                   d="M 11667,7857 Z"
                   id="path899"
                   inkscape:connector-curvature="0"
                   style="fill:none;stroke:#eeeeee" /><path
                   d="M 13319,9509 Z"
                   id="path901"
                   inkscape:connector-curvature="0"
                   style="fill:none;stroke:#eeeeee" /></g></g><g
               class="com.sun.star.drawing.CustomShape"
               id="g913"><g
                 id="id8"><rect
                   class="BoundingBox"
                   x="11158"
                   y="8619"
                   width="1146"
                   height="1273"
                   id="rect906"
                   style="fill:none;stroke:none" /><path
                   d="m 11731,9890 h -572 V 8620 h 1143 v 1270 z"
                   id="path908"
                   inkscape:connector-curvature="0"
                   style="fill:#adadad;stroke:none" /><path
                   d="m 11731,9890 h -572 V 8620 h 1143 v 1270 z"
                   id="path910"
                   inkscape:connector-curvature="0"
                   style="fill:none;stroke:#adadad" /></g></g><g
               class="com.sun.star.drawing.CustomShape"
               id="g922"><g
                 id="id9"><rect
                   class="BoundingBox"
                   x="11219"
                   y="8357"
                   width="1212"
                   height="1280"
                   id="rect915"
                   style="fill:none;stroke:none" /><path
                   d="m 11632,9467 -412,-169 386,-940 823,337 -386,940 z"
                   id="path917"
                   inkscape:connector-curvature="0"
                   style="fill:#adadad;stroke:none" /><path
                   d="m 11632,9467 -412,-169 386,-940 823,337 -386,940 z"
                   id="path919"
                   inkscape:connector-curvature="0"
                   style="fill:none;stroke:#adadad" /></g></g><g
               class="com.sun.star.drawing.CustomShape"
               id="g935"><g
                 id="id10"><rect
                   class="BoundingBox"
                   x="12245"
                   y="10261"
                   width="639"
                   height="639"
                   id="rect924"
                   style="fill:none;stroke:none" /><path
                   d="m 12563,10262 c 180,0 318,137 318,317 0,180 -138,318 -318,318 -180,0 -317,-138 -317,-318 0,-180 137,-317 317,-317 z m -317,0 z m 636,636 z"
                   id="path926"
                   inkscape:connector-curvature="0"
                   style="fill:#eeeeee;stroke:none" /><path
                   d="m 12563,10262 c 180,0 318,137 318,317 0,180 -138,318 -318,318 -180,0 -317,-138 -317,-318 0,-180 137,-317 317,-317 z"
                   id="path928"
                   inkscape:connector-curvature="0"
                   style="fill:none;stroke:#adadad" /><path
                   d="M 12246,10262 Z"
                   id="path930"
                   inkscape:connector-curvature="0"
                   style="fill:none;stroke:#adadad" /><path
                   d="M 12882,10898 Z"
                   id="path932"
                   inkscape:connector-curvature="0"
                   style="fill:none;stroke:#adadad" /></g></g></g></g></g></g></g></svg>