<?xml version="1.0" encoding="UTF-8" standalone="no"?>
<svg
   xmlns:ooo="http://xml.openoffice.org/svg/export"
   xmlns:dc="http://purl.org/dc/elements/1.1/"
   xmlns:cc="http://creativecommons.org/ns#"
   xmlns:rdf="http://www.w3.org/1999/02/22-rdf-syntax-ns#"
   xmlns:svg="http://www.w3.org/2000/svg"
   xmlns="http://www.w3.org/2000/svg"
   xmlns:sodipodi="http://sodipodi.sourceforge.net/DTD/sodipodi-0.dtd"
   xmlns:inkscape="http://www.inkscape.org/namespaces/inkscape"
   version="1.2"
   width="108.23222mm"
   height="106.96222mm"
   viewBox="0 0 10823.223 10696.222"
   preserveAspectRatio="xMidYMid"
   xml:space="preserve"
   id="svg1165"
   sodipodi:docname="power_bad.svg"
   style="fill-rule:evenodd;stroke-width:28.22200012;stroke-linejoin:round"
   inkscape:version="0.92.1 r"><metadata
     id="metadata1169"><rdf:RDF><cc:Work
         rdf:about=""><dc:format>image/svg+xml</dc:format><dc:type
           rdf:resource="http://purl.org/dc/dcmitype/StillImage" /></cc:Work></rdf:RDF></metadata><sodipodi:namedview
     pagecolor="#ffffff"
     bordercolor="#666666"
     borderopacity="1"
     objecttolerance="10"
     gridtolerance="10"
     guidetolerance="10"
     inkscape:pageopacity="0"
     inkscape:pageshadow="2"
     inkscape:window-width="2560"
     inkscape:window-height="1391"
     id="namedview1167"
     showgrid="false"
     inkscape:zoom="0.22348485"
     inkscape:cx="-967.65126"
     inkscape:cy="115.12862"
     inkscape:window-x="0"
     inkscape:window-y="49"
     inkscape:window-maximized="0"
     inkscape:current-layer="svg1165" /><defs
     class="ClipPathGroup"
     id="defs1086"><clipPath
       id="presentation_clip_path"
       clipPathUnits="userSpaceOnUse"><rect
         x="0"
         y="0"
         width="21590"
         height="27940"
         id="rect1080" /></clipPath><clipPath
       id="presentation_clip_path_shrink"
       clipPathUnits="userSpaceOnUse"><rect
         x="21"
         y="27"
         width="21547"
         height="27885"
         id="rect1083" /></clipPath></defs><defs
     class="TextShapeIndex"
     id="defs1090"><g
       ooo:slide="id1"
       ooo:id-list="id3 id4"
       id="g1088" /></defs><defs
     class="EmbeddedBulletChars"
     id="defs1122"><g
       id="bullet-char-template(57356)"
       transform="matrix(4.8828125e-4,0,0,-4.8828125e-4,0,0)"><path
         d="M 580,1141 1163,571 580,0 -4,571 Z"
         id="path1092"
         inkscape:connector-curvature="0" /></g><g
       id="bullet-char-template(57354)"
       transform="matrix(4.8828125e-4,0,0,-4.8828125e-4,0,0)"><path
         d="M 8,1128 H 1137 V 0 H 8 Z"
         id="path1095"
         inkscape:connector-curvature="0" /></g><g
       id="bullet-char-template(10146)"
       transform="matrix(4.8828125e-4,0,0,-4.8828125e-4,0,0)"><path
         d="M 174,0 602,739 174,1481 1456,739 Z M 1358,739 309,1346 659,739 Z"
         id="path1098"
         inkscape:connector-curvature="0" /></g><g
       id="bullet-char-template(10132)"
       transform="matrix(4.8828125e-4,0,0,-4.8828125e-4,0,0)"><path
         d="M 2015,739 1276,0 H 717 l 543,543 H 174 v 393 h 1086 l -543,545 h 557 z"
         id="path1101"
         inkscape:connector-curvature="0" /></g><g
       id="bullet-char-template(10007)"
       transform="matrix(4.8828125e-4,0,0,-4.8828125e-4,0,0)"><path
         d="m 0,-2 c -7,16 -16,29 -25,39 l 381,530 c -94,256 -141,385 -141,387 0,25 13,38 40,38 9,0 21,-2 34,-5 21,4 42,12 65,25 l 27,-13 111,-251 280,301 64,-25 24,25 c 21,-10 41,-24 62,-43 C 886,937 835,863 770,784 769,783 710,716 594,584 L 774,223 c 0,-27 -21,-55 -63,-84 l 16,-20 C 717,90 699,76 672,76 641,76 570,178 457,381 L 164,-76 c -22,-34 -53,-51 -92,-51 -42,0 -63,17 -64,51 -7,9 -10,24 -10,44 0,9 1,19 2,30 z"
         id="path1104"
         inkscape:connector-curvature="0" /></g><g
       id="bullet-char-template(10004)"
       transform="matrix(4.8828125e-4,0,0,-4.8828125e-4,0,0)"><path
         d="M 285,-33 C 182,-33 111,30 74,156 52,228 41,333 41,471 c 0,78 14,145 41,201 34,71 87,106 158,106 53,0 88,-31 106,-94 l 23,-176 c 8,-64 28,-97 59,-98 l 735,706 c 11,11 33,17 66,17 42,0 63,-15 63,-46 V 965 c 0,-36 -10,-64 -30,-84 L 442,47 C 390,-6 338,-33 285,-33 Z"
         id="path1107"
         inkscape:connector-curvature="0" /></g><g
       id="bullet-char-template(9679)"
       transform="matrix(4.8828125e-4,0,0,-4.8828125e-4,0,0)"><path
         d="M 813,0 C 632,0 489,54 383,161 276,268 223,411 223,592 c 0,181 53,324 160,431 106,107 249,161 430,161 179,0 323,-54 432,-161 108,-107 162,-251 162,-431 0,-180 -54,-324 -162,-431 C 1136,54 992,0 813,0 Z"
         id="path1110"
         inkscape:connector-curvature="0" /></g><g
       id="bullet-char-template(8226)"
       transform="matrix(4.8828125e-4,0,0,-4.8828125e-4,0,0)"><path
         d="m 346,457 c -73,0 -137,26 -191,78 -54,51 -81,114 -81,188 0,73 27,136 81,188 54,52 118,78 191,78 73,0 134,-26 185,-79 51,-51 77,-114 77,-187 0,-75 -25,-137 -76,-188 -50,-52 -112,-78 -186,-78 z"
         id="path1113"
         inkscape:connector-curvature="0" /></g><g
       id="bullet-char-template(8211)"
       transform="matrix(4.8828125e-4,0,0,-4.8828125e-4,0,0)"><path
         d="M -4,459 H 1135 V 606 H -4 Z"
         id="path1116"
         inkscape:connector-curvature="0" /></g><g
       id="bullet-char-template(61548)"
       transform="matrix(4.8828125e-4,0,0,-4.8828125e-4,0,0)"><path
         d="m 173,740 c 0,163 58,303 173,419 116,115 255,173 419,173 163,0 302,-58 418,-173 116,-116 174,-256 174,-419 0,-163 -58,-303 -174,-418 C 1067,206 928,148 765,148 601,148 462,206 346,322 231,437 173,577 173,740 Z"
         id="path1119"
         inkscape:connector-curvature="0" /></g></defs><defs
     class="TextEmbeddedBitmaps"
     id="defs1124" /><g
     id="g1129"
     transform="translate(-5556.889,-6319.889)"><g
       id="id2"
       class="Master_Slide"><g
         id="bg-id2"
         class="Background" /><g
         id="bo-id2"
         class="BackgroundObjects" /></g></g><g
     class="SlideGroup"
     id="g1163"
     transform="translate(-5556.889,-6319.889)"><g
       id="g1161"><g
         id="container-id1"><g
           id="id1"
           class="Slide"
           clip-path="url(#presentation_clip_path)"><g
             class="Page"
             id="g1157"><g
               class="com.sun.star.drawing.CustomShape"
               id="g1142"><g
                 id="id3"><rect
                   class="BoundingBox"
                   x="5570"
                   y="6333"
                   width="10799"
                   height="10672"
                   id="rect1131"
                   style="fill:none;stroke:none" /><path
                   d="m 10968,6334 c 3060,0 5398,2310 5398,5334 0,3024 -2338,5334 -5398,5334 -3060,0 -5397,-2310 -5397,-5334 0,-3024 2337,-5334 5397,-5334 z m -5397,0 z m 10796,10669 z"
                   id="path1133"
                   inkscape:connector-curvature="0"
                   style="fill:#adadad;stroke:none" /><path
                   d="m 10968,6334 c 3060,0 5398,2310 5398,5334 0,3024 -2338,5334 -5398,5334 -3060,0 -5397,-2310 -5397,-5334 0,-3024 2337,-5334 5397,-5334 z"
                   id="path1135"
                   inkscape:connector-curvature="0"
                   style="fill:none;stroke:#adadad" /><path
                   d="M 5571,6334 Z"
                   id="path1137"
                   inkscape:connector-curvature="0"
                   style="fill:none;stroke:#adadad" /><path
                   d="M 16367,17003 Z"
                   id="path1139"
                   inkscape:connector-curvature="0"
                   style="fill:none;stroke:#adadad" /></g></g><g
               class="com.sun.star.drawing.CustomShape"
               id="g1155"><g
                 id="id4"><rect
                   class="BoundingBox"
                   x="9127"
                   y="7857"
                   width="4068"
                   height="7116"
                   id="rect1144"
                   style="fill:none;stroke:none" /><path
                   d="m 13193,9782 -2662,496 1810,-2321 -882,-99 -2147,3354 2553,-488 -1817,2462 -292,-1033 -628,2818 2070,-794 -743,-446 2738,-3949 z M 9128,7858 Z m 4065,7113 z"
                   id="path1146"
                   inkscape:connector-curvature="0"
                   style="fill:#eeeeee;stroke:none" /><path
                   d="m 13193,9782 -2662,496 1810,-2321 -882,-99 -2147,3354 2553,-488 -1817,2462 -292,-1033 -628,2818 2070,-794 -743,-446 2738,-3949 z"
                   id="path1148"
                   inkscape:connector-curvature="0"
                   style="fill:none;stroke:#adadad" /><path
                   d="M 9128,7858 Z"
                   id="path1150"
                   inkscape:connector-curvature="0"
                   style="fill:none;stroke:#adadad" /><path
                   d="M 13193,14971 Z"
                   id="path1152"
                   inkscape:connector-curvature="0"
                   style="fill:none;stroke:#adadad" /></g></g></g></g></g></g></g></svg>