<?xml version="1.0" encoding="UTF-8"?>
<!DOCTYPE svg PUBLIC "-//W3C//DTD SVG 1.1//EN" "http://www.w3.org/Graphics/SVG/1.1/DTD/svg11.dtd">
<svg version="1.2" width="135.29mm" height="133.7mm" viewBox="0 0 13529 13370" preserveAspectRatio="xMidYMid" fill-rule="evenodd" stroke-width="28.222" stroke-linejoin="round" xmlns="http://www.w3.org/2000/svg" xmlns:ooo="http://xml.openoffice.org/svg/export" xmlns:xlink="http://www.w3.org/1999/xlink" xmlns:presentation="http://sun.com/xmlns/staroffice/presentation" xmlns:smil="http://www.w3.org/2001/SMIL20/" xmlns:anim="urn:oasis:names:tc:opendocument:xmlns:animation:1.0" xml:space="preserve">
 <defs class="ClipPathGroup">
  <clipPath id="presentation_clip_path" clipPathUnits="userSpaceOnUse">
   <rect x="0" y="0" width="13529" height="13370"/>
  </clipPath>
  <clipPath id="presentation_clip_path_shrink" clipPathUnits="userSpaceOnUse">
   <rect x="13" y="13" width="13502" height="13344"/>
  </clipPath>
 </defs>
 <defs class="TextShapeIndex">
  <g ooo:slide="id1" ooo:id-list="id3 id4 id5 id6 id7 id8 id9 id10 id11 id12 id13 id14 id15 id16 id17 id18 id19 id20 id21 id22 id23 id24 id25 id26 id27 id28 id29"/>
 </defs>
 <defs class="EmbeddedBulletChars">
  <g id="bullet-char-template(57356)" transform="scale(0.00048828125,-0.00048828125)">
   <path d="M 580,1141 L 1163,571 580,0 -4,571 580,1141 Z"/>
  </g>
  <g id="bullet-char-template(57354)" transform="scale(0.00048828125,-0.00048828125)">
   <path d="M 8,1128 L 1137,1128 1137,0 8,0 8,1128 Z"/>
  </g>
  <g id="bullet-char-template(10146)" transform="scale(0.00048828125,-0.00048828125)">
   <path d="M 174,0 L 602,739 174,1481 1456,739 174,0 Z M 1358,739 L 309,1346 659,739 1358,739 Z"/>
  </g>
  <g id="bullet-char-template(10132)" transform="scale(0.00048828125,-0.00048828125)">
   <path d="M 2015,739 L 1276,0 717,0 1260,543 174,543 174,936 1260,936 717,1481 1274,1481 2015,739 Z"/>
  </g>
  <g id="bullet-char-template(10007)" transform="scale(0.00048828125,-0.00048828125)">
   <path d="M 0,-2 C -7,14 -16,27 -25,37 L 356,567 C 262,823 215,952 215,954 215,979 228,992 255,992 264,992 276,990 289,987 310,991 331,999 354,1012 L 381,999 492,748 772,1049 836,1024 860,1049 C 881,1039 901,1025 922,1006 886,937 835,863 770,784 769,783 710,716 594,584 L 774,223 C 774,196 753,168 711,139 L 727,119 C 717,90 699,76 672,76 641,76 570,178 457,381 L 164,-76 C 142,-110 111,-127 72,-127 30,-127 9,-110 8,-76 1,-67 -2,-52 -2,-32 -2,-23 -1,-13 0,-2 Z"/>
  </g>
  <g id="bullet-char-template(10004)" transform="scale(0.00048828125,-0.00048828125)">
   <path d="M 285,-33 C 182,-33 111,30 74,156 52,228 41,333 41,471 41,549 55,616 82,672 116,743 169,778 240,778 293,778 328,747 346,684 L 369,508 C 377,444 397,411 428,410 L 1163,1116 C 1174,1127 1196,1133 1229,1133 1271,1133 1292,1118 1292,1087 L 1292,965 C 1292,929 1282,901 1262,881 L 442,47 C 390,-6 338,-33 285,-33 Z"/>
  </g>
  <g id="bullet-char-template(9679)" transform="scale(0.00048828125,-0.00048828125)">
   <path d="M 813,0 C 632,0 489,54 383,161 276,268 223,411 223,592 223,773 276,916 383,1023 489,1130 632,1184 813,1184 992,1184 1136,1130 1245,1023 1353,916 1407,772 1407,592 1407,412 1353,268 1245,161 1136,54 992,0 813,0 Z"/>
  </g>
  <g id="bullet-char-template(8226)" transform="scale(0.00048828125,-0.00048828125)">
   <path d="M 346,457 C 273,457 209,483 155,535 101,586 74,649 74,723 74,796 101,859 155,911 209,963 273,989 346,989 419,989 480,963 531,910 582,859 608,796 608,723 608,648 583,586 532,535 482,483 420,457 346,457 Z"/>
  </g>
  <g id="bullet-char-template(8211)" transform="scale(0.00048828125,-0.00048828125)">
   <path d="M -4,459 L 1135,459 1135,606 -4,606 -4,459 Z"/>
  </g>
  <g id="bullet-char-template(61548)" transform="scale(0.00048828125,-0.00048828125)">
   <path d="M 173,740 C 173,903 231,1043 346,1159 462,1274 601,1332 765,1332 928,1332 1067,1274 1183,1159 1299,1043 1357,903 1357,740 1357,577 1299,437 1183,322 1067,206 928,148 765,148 601,148 462,206 346,322 231,437 173,577 173,740 Z"/>
  </g>
 </defs>
 <defs class="TextEmbeddedBitmaps"/>
 <g>
  <g id="id2" class="Master_Slide">
   <g id="bg-id2" class="Background"/>
   <g id="bo-id2" class="BackgroundObjects"/>
  </g>
 </g>
 <g class="SlideGroup">
  <g>
   <g id="container-id1">
    <g id="id1" class="Slide" clip-path="url(#presentation_clip_path)">
     <g class="Page">
      <g class="com.sun.star.drawing.PolyPolygonShape">
       <g id="id3">
        <rect class="BoundingBox" stroke="none" fill="none" x="16" y="16" width="13501" height="13342"/>
       </g>
      </g>
      <g class="com.sun.star.drawing.ClosedBezierShape">
       <g id="id4">
        <rect class="BoundingBox" stroke="none" fill="none" x="17" y="18" width="13498" height="13339"/>
        <path fill="rgb(173,173,173)" stroke="none" d="M 6765,18 C 10590,18 13513,2906 13513,6686 13513,10466 10590,13354 6765,13354 2939,13354 18,10466 18,6686 18,2906 2939,18 6765,18 Z M 18,18 L 18,18 Z M 13514,13355 L 13514,13355 Z"/>
       </g>
      </g>
      <g class="com.sun.star.drawing.ClosedBezierShape">
       <g id="id5">
        <rect class="BoundingBox" stroke="none" fill="none" x="0" y="0" width="13532" height="13373"/>
        <path fill="none" stroke="rgb(173,173,173)" stroke-width="35" stroke-linejoin="round" d="M 6765,18 C 10590,18 13513,2906 13513,6686 13513,10466 10590,13354 6765,13354 2939,13354 18,10466 18,6686 18,2906 2939,18 6765,18 Z"/>
       </g>
      </g>
      <g class="com.sun.star.drawing.PolyPolygonShape">
       <g id="id6">
        <rect class="BoundingBox" stroke="none" fill="none" x="0" y="0" width="37" height="37"/>
       </g>
      </g>
      <g class="com.sun.star.drawing.PolyPolygonShape">
       <g id="id7">
        <rect class="BoundingBox" stroke="none" fill="none" x="13495" y="13336" width="37" height="37"/>
       </g>
      </g>
      <g class="com.sun.star.drawing.PolyPolygonShape">
       <g id="id8">
        <rect class="BoundingBox" stroke="none" fill="none" x="2235" y="2395" width="9214" height="5882"/>
       </g>
      </g>
      <g class="com.sun.star.drawing.ClosedBezierShape">
       <g id="id9">
        <rect class="BoundingBox" stroke="none" fill="none" x="2236" y="2398" width="9212" height="5877"/>
        <path fill="rgb(238,238,238)" stroke="none" d="M 3215,2398 C 2725,2398 2236,2887 2236,3377 L 2236,7294 C 2236,7784 2725,8274 3215,8274 L 10466,8274 C 10956,8274 11446,7784 11446,7294 L 11446,3377 C 11446,2887 10956,2398 10466,2398 L 3215,2398 Z M 2236,2398 L 2236,2398 Z M 11446,8274 L 11446,8274 Z"/>
       </g>
      </g>
      <g class="com.sun.star.drawing.ClosedBezierShape">
       <g id="id10">
        <rect class="BoundingBox" stroke="none" fill="none" x="2218" y="2380" width="9247" height="5913"/>
        <path fill="none" stroke="rgb(238,238,238)" stroke-width="35" stroke-linejoin="round" d="M 3215,2398 C 2725,2398 2236,2887 2236,3377 L 2236,7294 C 2236,7784 2725,8274 3215,8274 L 10466,8274 C 10956,8274 11446,7784 11446,7294 L 11446,3377 C 11446,2887 10956,2398 10466,2398 L 3215,2398 Z"/>
       </g>
      </g>
      <g class="com.sun.star.drawing.PolyPolygonShape">
       <g id="id11">
        <rect class="BoundingBox" stroke="none" fill="none" x="2218" y="2380" width="37" height="37"/>
       </g>
      </g>
      <g class="com.sun.star.drawing.PolyPolygonShape">
       <g id="id12">
        <rect class="BoundingBox" stroke="none" fill="none" x="11427" y="8255" width="37" height="37"/>
       </g>
      </g>
      <g class="com.sun.star.drawing.PolyPolygonShape">
       <g id="id13">
        <rect class="BoundingBox" stroke="none" fill="none" x="6208" y="8270" width="1277" height="1435"/>
       </g>
      </g>
      <g class="com.sun.star.drawing.PolyPolygonShape">
       <g id="id14">
        <rect class="BoundingBox" stroke="none" fill="none" x="6210" y="8271" width="1272" height="1431"/>
        <path fill="rgb(238,238,238)" stroke="none" d="M 6845,9701 L 6210,9701 6210,8271 7481,8271 7481,9701 6845,9701 Z"/>
       </g>
      </g>
      <g class="com.sun.star.drawing.PolyPolygonShape">
       <g id="id15">
        <rect class="BoundingBox" stroke="none" fill="none" x="6192" y="8253" width="1308" height="1467"/>
        <path fill="none" stroke="rgb(238,238,238)" stroke-width="35" stroke-linejoin="round" d="M 6845,9701 L 6210,9701 6210,8271 7481,8271 7481,9701 6845,9701 Z"/>
       </g>
      </g>
      <g class="com.sun.star.drawing.PolyPolygonShape">
       <g id="id16">
        <rect class="BoundingBox" stroke="none" fill="none" x="2875" y="9541" width="8102" height="1117"/>
       </g>
      </g>
      <g class="com.sun.star.drawing.PolyPolygonShape">
       <g id="id17">
        <rect class="BoundingBox" stroke="none" fill="none" x="2876" y="9543" width="8098" height="1113"/>
        <path fill="rgb(238,238,238)" stroke="none" d="M 2876,10655 L 3511,9543 10338,9543 10973,10655 2876,10655 Z"/>
       </g>
      </g>
      <g class="com.sun.star.drawing.PolyPolygonShape">
       <g id="id18">
        <rect class="BoundingBox" stroke="none" fill="none" x="2858" y="9525" width="8134" height="1149"/>
        <path fill="none" stroke="rgb(238,238,238)" stroke-width="35" stroke-linejoin="round" d="M 2876,10655 L 3511,9543 10338,9543 10973,10655 2876,10655 Z"/>
       </g>
      </g>
      <g class="com.sun.star.drawing.PolyPolygonShape">
       <g id="id19">
        <rect class="BoundingBox" stroke="none" fill="none" x="4780" y="3507" width="642" height="2072"/>
       </g>
      </g>
      <g class="com.sun.star.drawing.PolyPolygonShape">
       <g id="id20">
        <rect class="BoundingBox" stroke="none" fill="none" x="4763" y="3491" width="37" height="37"/>
       </g>
      </g>
      <g class="com.sun.star.drawing.PolyPolygonShape">
       <g id="id21">
        <rect class="BoundingBox" stroke="none" fill="none" x="5400" y="5556" width="37" height="37"/>
       </g>
      </g>
      <g class="com.sun.star.drawing.PolyPolygonShape">
       <g id="id22">
        <rect class="BoundingBox" stroke="none" fill="none" x="8114" y="3507" width="642" height="2072"/>
       </g>
      </g>
      <g class="com.sun.star.drawing.PolyPolygonShape">
       <g id="id23">
        <rect class="BoundingBox" stroke="none" fill="none" x="8097" y="3491" width="37" height="37"/>
       </g>
      </g>
      <g class="com.sun.star.drawing.PolyPolygonShape">
       <g id="id24">
        <rect class="BoundingBox" stroke="none" fill="none" x="8733" y="5556" width="37" height="37"/>
       </g>
      </g>
      <g class="com.sun.star.drawing.PolyPolygonShape">
       <g id="id25">
        <rect class="BoundingBox" stroke="none" fill="none" x="4620" y="6365" width="4293" height="2388"/>
       </g>
      </g>
      <g class="com.sun.star.drawing.PolyPolygonShape">
       <g id="id26">
        <rect class="BoundingBox" stroke="none" fill="none" x="4603" y="6348" width="37" height="37"/>
       </g>
      </g>
      <g class="com.sun.star.drawing.PolyPolygonShape">
       <g id="id27">
        <rect class="BoundingBox" stroke="none" fill="none" x="8891" y="8731" width="37" height="37"/>
       </g>
      </g>
      <g class="com.sun.star.drawing.CustomShape">
       <g id="id28">
        <rect class="BoundingBox" stroke="none" fill="none" x="2793" y="3047" width="8131" height="4575"/>
        <path fill="rgb(102,102,102)" stroke="none" d="M 6858,7620 L 2794,7620 2794,3048 10922,3048 10922,7620 6858,7620 Z"/>
        <path fill="none" stroke="rgb(102,102,102)" d="M 6858,7620 L 2794,7620 2794,3048 10922,3048 10922,7620 6858,7620 Z"/>
       </g>
      </g>
      <g class="com.sun.star.drawing.CustomShape">
       <g id="id29">
        <rect class="BoundingBox" stroke="none" fill="none" x="4539" y="3523" width="4639" height="3495"/>
        <path fill="none" stroke="rgb(127,255,0)" stroke-width="318" stroke-linejoin="round" d="M 5228,3682 C 5095,3682 4963,3814 4963,3946 L 4963,5005 C 4963,5137 4831,5270 4699,5270 4831,5270 4963,5402 4963,5534 L 4963,6593 C 4963,6725 5095,6858 5228,6858"/>
        <path fill="none" stroke="rgb(127,255,0)" stroke-width="318" stroke-linejoin="round" d="M 4699,3682 L 4699,3682 Z"/>
        <path fill="none" stroke="rgb(127,255,0)" stroke-width="318" stroke-linejoin="round" d="M 9018,6858 L 9018,6858 Z"/>
        <path fill="none" stroke="rgb(127,255,0)" stroke-width="318" stroke-linejoin="round" d="M 8488,6858 C 8620,6858 8753,6725 8753,6593 L 8753,5534 C 8753,5402 8885,5270 9018,5270 8885,5270 8753,5137 8753,5005 L 8753,3946 C 8753,3814 8620,3682 8488,3682"/>
        <path fill="none" stroke="rgb(127,255,0)" stroke-width="318" stroke-linejoin="round" d="M 4699,3682 L 4699,3682 Z"/>
        <path fill="none" stroke="rgb(127,255,0)" stroke-width="318" stroke-linejoin="round" d="M 9018,6858 L 9018,6858 Z"/>
       </g>
      </g>
     </g>
    </g>
   </g>
  </g>
 </g>
</svg>