<?xml version="1.0" encoding="UTF-8" standalone="no"?>
<svg
   xmlns:ooo="http://xml.openoffice.org/svg/export"
   xmlns:dc="http://purl.org/dc/elements/1.1/"
   xmlns:cc="http://creativecommons.org/ns#"
   xmlns:rdf="http://www.w3.org/1999/02/22-rdf-syntax-ns#"
   xmlns:svg="http://www.w3.org/2000/svg"
   xmlns="http://www.w3.org/2000/svg"
   xmlns:sodipodi="http://sodipodi.sourceforge.net/DTD/sodipodi-0.dtd"
   xmlns:inkscape="http://www.inkscape.org/namespaces/inkscape"
   version="1.2"
   width="108.23222mm"
   height="106.96222mm"
   viewBox="0 0 10823.223 10696.222"
   preserveAspectRatio="xMidYMid"
   xml:space="preserve"
   id="svg472"
   sodipodi:docname="climate_good.svg"
   style="fill-rule:evenodd;stroke-width:28.22200012;stroke-linejoin:round"
   inkscape:version="0.92.1 r"><metadata
     id="metadata476"><rdf:RDF><cc:Work
         rdf:about=""><dc:format>image/svg+xml</dc:format><dc:type
           rdf:resource="http://purl.org/dc/dcmitype/StillImage" /></cc:Work></rdf:RDF></metadata><sodipodi:namedview
     pagecolor="#ffffff"
     bordercolor="#666666"
     borderopacity="1"
     objecttolerance="10"
     gridtolerance="10"
     guidetolerance="10"
     inkscape:pageopacity="0"
     inkscape:pageshadow="2"
     inkscape:window-width="2560"
     inkscape:window-height="1391"
     id="namedview474"
     showgrid="false"
     inkscape:zoom="1.0899621"
     inkscape:cx="197.97584"
     inkscape:cy="115.12862"
     inkscape:window-x="0"
     inkscape:window-y="49"
     inkscape:window-maximized="0"
     inkscape:current-layer="svg472" /><defs
     class="ClipPathGroup"
     id="defs269"><clipPath
       id="presentation_clip_path"
       clipPathUnits="userSpaceOnUse"><rect
         x="0"
         y="0"
         width="21590"
         height="27940"
         id="rect263" /></clipPath><clipPath
       id="presentation_clip_path_shrink"
       clipPathUnits="userSpaceOnUse"><rect
         x="21"
         y="27"
         width="21547"
         height="27885"
         id="rect266" /></clipPath></defs><defs
     class="TextShapeIndex"
     id="defs273"><g
       ooo:slide="id1"
       ooo:id-list="id3 id4 id5 id6 id7 id8 id9 id10"
       id="g271" /></defs><defs
     class="EmbeddedBulletChars"
     id="defs305"><g
       id="bullet-char-template(57356)"
       transform="matrix(4.8828125e-4,0,0,-4.8828125e-4,0,0)"><path
         d="M 580,1141 1163,571 580,0 -4,571 Z"
         id="path275"
         inkscape:connector-curvature="0" /></g><g
       id="bullet-char-template(57354)"
       transform="matrix(4.8828125e-4,0,0,-4.8828125e-4,0,0)"><path
         d="M 8,1128 H 1137 V 0 H 8 Z"
         id="path278"
         inkscape:connector-curvature="0" /></g><g
       id="bullet-char-template(10146)"
       transform="matrix(4.8828125e-4,0,0,-4.8828125e-4,0,0)"><path
         d="M 174,0 602,739 174,1481 1456,739 Z M 1358,739 309,1346 659,739 Z"
         id="path281"
         inkscape:connector-curvature="0" /></g><g
       id="bullet-char-template(10132)"
       transform="matrix(4.8828125e-4,0,0,-4.8828125e-4,0,0)"><path
         d="M 2015,739 1276,0 H 717 l 543,543 H 174 v 393 h 1086 l -543,545 h 557 z"
         id="path284"
         inkscape:connector-curvature="0" /></g><g
       id="bullet-char-template(10007)"
       transform="matrix(4.8828125e-4,0,0,-4.8828125e-4,0,0)"><path
         d="m 0,-2 c -7,16 -16,29 -25,39 l 381,530 c -94,256 -141,385 -141,387 0,25 13,38 40,38 9,0 21,-2 34,-5 21,4 42,12 65,25 l 27,-13 111,-251 280,301 64,-25 24,25 c 21,-10 41,-24 62,-43 C 886,937 835,863 770,784 769,783 710,716 594,584 L 774,223 c 0,-27 -21,-55 -63,-84 l 16,-20 C 717,90 699,76 672,76 641,76 570,178 457,381 L 164,-76 c -22,-34 -53,-51 -92,-51 -42,0 -63,17 -64,51 -7,9 -10,24 -10,44 0,9 1,19 2,30 z"
         id="path287"
         inkscape:connector-curvature="0" /></g><g
       id="bullet-char-template(10004)"
       transform="matrix(4.8828125e-4,0,0,-4.8828125e-4,0,0)"><path
         d="M 285,-33 C 182,-33 111,30 74,156 52,228 41,333 41,471 c 0,78 14,145 41,201 34,71 87,106 158,106 53,0 88,-31 106,-94 l 23,-176 c 8,-64 28,-97 59,-98 l 735,706 c 11,11 33,17 66,17 42,0 63,-15 63,-46 V 965 c 0,-36 -10,-64 -30,-84 L 442,47 C 390,-6 338,-33 285,-33 Z"
         id="path290"
         inkscape:connector-curvature="0" /></g><g
       id="bullet-char-template(9679)"
       transform="matrix(4.8828125e-4,0,0,-4.8828125e-4,0,0)"><path
         d="M 813,0 C 632,0 489,54 383,161 276,268 223,411 223,592 c 0,181 53,324 160,431 106,107 249,161 430,161 179,0 323,-54 432,-161 108,-107 162,-251 162,-431 0,-180 -54,-324 -162,-431 C 1136,54 992,0 813,0 Z"
         id="path293"
         inkscape:connector-curvature="0" /></g><g
       id="bullet-char-template(8226)"
       transform="matrix(4.8828125e-4,0,0,-4.8828125e-4,0,0)"><path
         d="m 346,457 c -73,0 -137,26 -191,78 -54,51 -81,114 -81,188 0,73 27,136 81,188 54,52 118,78 191,78 73,0 134,-26 185,-79 51,-51 77,-114 77,-187 0,-75 -25,-137 -76,-188 -50,-52 -112,-78 -186,-78 z"
         id="path296"
         inkscape:connector-curvature="0" /></g><g
       id="bullet-char-template(8211)"
       transform="matrix(4.8828125e-4,0,0,-4.8828125e-4,0,0)"><path
         d="M -4,459 H 1135 V 606 H -4 Z"
         id="path299"
         inkscape:connector-curvature="0" /></g><g
       id="bullet-char-template(61548)"
       transform="matrix(4.8828125e-4,0,0,-4.8828125e-4,0,0)"><path
         d="m 173,740 c 0,163 58,303 173,419 116,115 255,173 419,173 163,0 302,-58 418,-173 116,-116 174,-256 174,-419 0,-163 -58,-303 -174,-418 C 1067,206 928,148 765,148 601,148 462,206 346,322 231,437 173,577 173,740 Z"
         id="path302"
         inkscape:connector-curvature="0" /></g></defs><defs
     class="TextEmbeddedBitmaps"
     id="defs307" /><g
     id="g312"
     transform="translate(-5556.889,-6319.889)"><g
       id="id2"
       class="Master_Slide"><g
         id="bg-id2"
         class="Background" /><g
         id="bo-id2"
         class="BackgroundObjects" /></g></g><g
     class="SlideGroup"
     id="g470"
     transform="translate(-5556.889,-6319.889)"><g
       id="g468"><g
         id="container-id1"><g
           id="id1"
           class="Slide"
           clip-path="url(#presentation_clip_path)"><g
             class="Page"
             id="g464"><g
               class="com.sun.star.drawing.CustomShape"
               id="g325"><g
                 id="id3"><rect
                   class="BoundingBox"
                   x="5570"
                   y="6333"
                   width="10799"
                   height="10672"
                   id="rect314"
                   style="fill:none;stroke:none" /><path
                   d="m 10968,6334 c 3060,0 5398,2310 5398,5334 0,3024 -2338,5334 -5398,5334 -3060,0 -5397,-2310 -5397,-5334 0,-3024 2337,-5334 5397,-5334 z m -5397,0 z m 10796,10669 z"
                   id="path316"
                   inkscape:connector-curvature="0"
                   style="fill:#adadad;stroke:none" /><path
                   d="m 10968,6334 c 3060,0 5398,2310 5398,5334 0,3024 -2338,5334 -5398,5334 -3060,0 -5397,-2310 -5397,-5334 0,-3024 2337,-5334 5397,-5334 z"
                   id="path318"
                   inkscape:connector-curvature="0"
                   style="fill:none;stroke:#adadad" /><path
                   d="M 5571,6334 Z"
                   id="path320"
                   inkscape:connector-curvature="0"
                   style="fill:none;stroke:#adadad" /><path
                   d="M 16367,17003 Z"
                   id="path322"
                   inkscape:connector-curvature="0"
                   style="fill:none;stroke:#adadad" /></g></g><g
               class="com.sun.star.drawing.CustomShape"
               id="g404"><g
                 id="id4"><rect
                   class="BoundingBox"
                   x="9000"
                   y="6841"
                   width="3814"
                   height="2290"
                   id="rect327"
                   style="fill:none;stroke:none" /><path
                   d="m 9341,7600 c -71,-283 259,-550 589,-550 104,-2 212,25 300,67 85,-128 242,-207 418,-207 118,5 242,43 330,111 64,-113 198,-179 343,-179 121,0 233,48 303,122 81,-76 203,-122 330,-122 206,0 381,119 418,286 200,47 344,198 344,372 0,53 -10,104 -40,153 84,84 136,189 136,296 0,242 -228,447 -521,482 0,232 -226,414 -508,414 -97,0 -189,-22 -270,-65 -74,205 -309,349 -572,349 -196,0 -381,-86 -492,-222 -104,52 -49,83 -348,83 -245,0 -471,-107 -589,-281 -282,-4 -427,-142 -427,-315 0,-81 37,-154 104,-214 -121,-51 -188,-152 -188,-267 0,-162 148,-295 340,-313 z m -340,-758 z m 3811,2287 z"
                   id="path329"
                   inkscape:connector-curvature="0"
                   style="fill:#cccccc;stroke:none" /><path
                   d="m 9341,7600 c -71,-283 259,-550 589,-550 104,-2 212,25 300,67 85,-128 242,-207 418,-207 118,5 242,43 330,111 64,-113 198,-179 343,-179 121,0 233,48 303,122 81,-76 203,-122 330,-122 206,0 381,119 418,286 200,47 344,198 344,372 0,53 -10,104 -40,153 84,84 136,189 136,296 0,242 -228,447 -521,482 0,232 -226,414 -508,414 -97,0 -189,-22 -270,-65 -74,205 -309,349 -572,349 -196,0 -381,-86 -492,-222 -104,52 -49,83 -348,83 -245,0 -471,-107 -589,-281 -282,-4 -427,-142 -427,-315 0,-81 37,-154 104,-214 -121,-51 -188,-152 -188,-267 0,-162 148,-295 340,-313 z"
                   id="path331"
                   inkscape:connector-curvature="0"
                   style="fill:none;stroke:#adadad" /><path
                   d="M 9001,6842 Z"
                   id="path333"
                   inkscape:connector-curvature="0"
                   style="fill:none;stroke:#adadad" /><path
                   d="M 12812,9129 Z"
                   id="path335"
                   inkscape:connector-curvature="0"
                   style="fill:none;stroke:#adadad" /><path
                   d="m 9341,7600 c 4,26 19,56 28,80"
                   id="path337"
                   inkscape:connector-curvature="0"
                   style="fill:none;stroke:#adadad" /><path
                   d="M 9001,6842 Z"
                   id="path339"
                   inkscape:connector-curvature="0"
                   style="fill:none;stroke:#adadad" /><path
                   d="M 12812,9129 Z"
                   id="path341"
                   inkscape:connector-curvature="0"
                   style="fill:none;stroke:#adadad" /><path
                   d="m 10230,7117 c 41,20 90,47 124,75"
                   id="path343"
                   inkscape:connector-curvature="0"
                   style="fill:none;stroke:#adadad" /><path
                   d="M 9001,6842 Z"
                   id="path345"
                   inkscape:connector-curvature="0"
                   style="fill:none;stroke:#adadad" /><path
                   d="M 12812,9129 Z"
                   id="path347"
                   inkscape:connector-curvature="0"
                   style="fill:none;stroke:#adadad" /><path
                   d="m 10978,7021 c -14,23 -23,49 -31,75"
                   id="path349"
                   inkscape:connector-curvature="0"
                   style="fill:none;stroke:#adadad" /><path
                   d="M 9001,6842 Z"
                   id="path351"
                   inkscape:connector-curvature="0"
                   style="fill:none;stroke:#adadad" /><path
                   d="M 12812,9129 Z"
                   id="path353"
                   inkscape:connector-curvature="0"
                   style="fill:none;stroke:#adadad" /><path
                   d="m 11624,6964 c -26,26 -40,60 -58,90"
                   id="path355"
                   inkscape:connector-curvature="0"
                   style="fill:none;stroke:#adadad" /><path
                   d="M 9001,6842 Z"
                   id="path357"
                   inkscape:connector-curvature="0"
                   style="fill:none;stroke:#adadad" /><path
                   d="M 12812,9129 Z"
                   id="path359"
                   inkscape:connector-curvature="0"
                   style="fill:none;stroke:#adadad" /><path
                   d="m 12372,7128 c 4,19 21,62 14,71"
                   id="path361"
                   inkscape:connector-curvature="0"
                   style="fill:none;stroke:#adadad" /><path
                   d="M 9001,6842 Z"
                   id="path363"
                   inkscape:connector-curvature="0"
                   style="fill:none;stroke:#adadad" /><path
                   d="M 12812,9129 Z"
                   id="path365"
                   inkscape:connector-curvature="0"
                   style="fill:none;stroke:#adadad" /><path
                   d="m 12676,7653 c -30,54 -71,101 -127,140"
                   id="path367"
                   inkscape:connector-curvature="0"
                   style="fill:none;stroke:#adadad" /><path
                   d="M 9001,6842 Z"
                   id="path369"
                   inkscape:connector-curvature="0"
                   style="fill:none;stroke:#adadad" /><path
                   d="M 12812,9129 Z"
                   id="path371"
                   inkscape:connector-curvature="0"
                   style="fill:none;stroke:#adadad" /><path
                   d="m 12293,8431 c 14,-86 -67,-298 -293,-377"
                   id="path373"
                   inkscape:connector-curvature="0"
                   style="fill:none;stroke:#adadad" /><path
                   d="M 9001,6842 Z"
                   id="path375"
                   inkscape:connector-curvature="0"
                   style="fill:none;stroke:#adadad" /><path
                   d="M 12812,9129 Z"
                   id="path377"
                   inkscape:connector-curvature="0"
                   style="fill:none;stroke:#adadad" /><path
                   d="m 11513,8780 c 14,-35 19,-67 23,-100"
                   id="path379"
                   inkscape:connector-curvature="0"
                   style="fill:none;stroke:#adadad" /><path
                   d="M 9001,6842 Z"
                   id="path381"
                   inkscape:connector-curvature="0"
                   style="fill:none;stroke:#adadad" /><path
                   d="M 12812,9129 Z"
                   id="path383"
                   inkscape:connector-curvature="0"
                   style="fill:none;stroke:#adadad" /><path
                   d="m 10451,8907 c -28,-27 -46,-59 -64,-92"
                   id="path385"
                   inkscape:connector-curvature="0"
                   style="fill:none;stroke:#adadad" /><path
                   d="M 9001,6842 Z"
                   id="path387"
                   inkscape:connector-curvature="0"
                   style="fill:none;stroke:#adadad" /><path
                   d="M 12812,9129 Z"
                   id="path389"
                   inkscape:connector-curvature="0"
                   style="fill:none;stroke:#adadad" /><path
                   d="m 9512,8709 c 34,-4 67,-10 99,-20"
                   id="path391"
                   inkscape:connector-curvature="0"
                   style="fill:none;stroke:#adadad" /><path
                   d="M 9001,6842 Z"
                   id="path393"
                   inkscape:connector-curvature="0"
                   style="fill:none;stroke:#adadad" /><path
                   d="M 12812,9129 Z"
                   id="path395"
                   inkscape:connector-curvature="0"
                   style="fill:none;stroke:#adadad" /><path
                   d="m 9189,8180 c 59,27 126,52 223,42"
                   id="path397"
                   inkscape:connector-curvature="0"
                   style="fill:none;stroke:#adadad" /><path
                   d="M 9001,6842 Z"
                   id="path399"
                   inkscape:connector-curvature="0"
                   style="fill:none;stroke:#adadad" /><path
                   d="M 12812,9129 Z"
                   id="path401"
                   inkscape:connector-curvature="0"
                   style="fill:none;stroke:#adadad" /></g></g><g
               class="com.sun.star.drawing.CustomShape"
               id="g413"><g
                 id="id5"><rect
                   class="BoundingBox"
                   x="10523"
                   y="13190"
                   width="384"
                   height="2670"
                   id="rect406"
                   style="fill:none;stroke:none" /><path
                   d="m 10715,15858 h -191 v -2667 h 381 v 2667 z"
                   id="path408"
                   inkscape:connector-curvature="0"
                   style="fill:#eeeeee;stroke:none" /><path
                   d="m 10715,15858 h -191 v -2667 h 381 v 2667 z"
                   id="path410"
                   inkscape:connector-curvature="0"
                   style="fill:none;stroke:#eeeeee" /></g></g><g
               class="com.sun.star.drawing.EllipseShape"
               id="g422"><g
                 id="id6"><rect
                   class="BoundingBox"
                   x="7984"
                   y="10778"
                   width="5464"
                   height="2724"
                   id="rect415"
                   style="fill:none;stroke:none" /><path
                   d="m 7985,13500 c 1,-480 107,-887 338,-1307 243,-441 549,-760 979,-1020 431,-260 855,-383 1358,-393 503,-10 932,95 1372,338 441,242 760,549 1020,979 260,430 383,855 393,1357 0,8 0,15 1,23 z"
                   id="path417"
                   inkscape:connector-curvature="0"
                   style="fill:#ff7f00;stroke:none" /><path
                   d="m 7985,13500 c 1,-480 107,-887 338,-1307 243,-441 549,-760 979,-1020 431,-260 855,-383 1358,-393 503,-10 932,95 1372,338 441,242 760,549 1020,979 260,430 383,855 393,1357 0,8 0,15 1,23 z"
                   id="path419"
                   inkscape:connector-curvature="0"
                   style="fill:none;stroke:#adadad" /></g></g><g
               class="com.sun.star.drawing.CustomShape"
               id="g431"><g
                 id="id7"><rect
                   class="BoundingBox"
                   x="9143"
                   y="9319"
                   width="861"
                   height="1394"
                   id="rect424"
                   style="fill:none;stroke:none" /><path
                   d="m 9199,10680 -55,-32 747,-1328 111,62 -747,1329 z"
                   id="path426"
                   inkscape:connector-curvature="0"
                   style="fill:#007fff;stroke:none" /><path
                   d="m 9199,10680 -55,-32 747,-1328 111,62 -747,1329 z"
                   id="path428"
                   inkscape:connector-curvature="0"
                   style="fill:none;stroke:#adadad" /></g></g><g
               class="com.sun.star.drawing.CustomShape"
               id="g440"><g
                 id="id8"><rect
                   class="BoundingBox"
                   x="10143"
                   y="9259"
                   width="861"
                   height="1394"
                   id="rect433"
                   style="fill:none;stroke:none" /><path
                   d="m 10199,10620 -55,-32 747,-1328 111,62 -747,1329 z"
                   id="path435"
                   inkscape:connector-curvature="0"
                   style="fill:#007fff;stroke:none" /><path
                   d="m 10199,10620 -55,-32 747,-1328 111,62 -747,1329 z"
                   id="path437"
                   inkscape:connector-curvature="0"
                   style="fill:none;stroke:#adadad" /></g></g><g
               class="com.sun.star.drawing.CustomShape"
               id="g449"><g
                 id="id9"><rect
                   class="BoundingBox"
                   x="11286"
                   y="9132"
                   width="861"
                   height="1394"
                   id="rect442"
                   style="fill:none;stroke:none" /><path
                   d="m 11342,10493 -55,-32 747,-1328 111,62 -747,1329 z"
                   id="path444"
                   inkscape:connector-curvature="0"
                   style="fill:#007fff;stroke:none" /><path
                   d="m 11342,10493 -55,-32 747,-1328 111,62 -747,1329 z"
                   id="path446"
                   inkscape:connector-curvature="0"
                   style="fill:none;stroke:#adadad" /></g></g><g
               class="com.sun.star.drawing.CustomShape"
               id="g462"><g
                 id="id10"><rect
                   class="BoundingBox"
                   x="9126"
                   y="14714"
                   width="1782"
                   height="2036"
                   id="rect451"
                   style="fill:none;stroke:none" /><path
                   d="m 9128,15745 2,51 4,51 6,50 8,51 11,49 13,49 14,48 17,48 19,46 21,45 23,44 25,42 27,41 29,39 30,38 32,36 33,34 35,32 36,30 37,28 39,25 39,24 41,21 42,19 42,16 43,14 43,12 44,8 45,7 44,4 45,1 45,-1 44,-4 45,-7 44,-8 43,-12 43,-14 42,-16 42,-19 41,-21 39,-24 39,-25 37,-28 36,-30 35,-32 33,-34 32,-36 30,-38 29,-39 27,-41 25,-42 23,-44 21,-45 19,-46 17,-48 14,-48 13,-49 11,-49 8,-51 6,-50 4,-51 2,-51 -364,-5 -1,30 -2,30 -4,30 -5,29 -6,29 -8,29 -9,29 -10,27 -11,28 -12,26 -14,26 -14,25 -16,24 -17,23 -18,23 -19,21 -19,20 -21,19 -21,17 -22,17 -23,15 -24,14 -24,12 -24,11 -25,10 -25,8 -26,7 -26,5 -26,4 -27,2 -26,1 -26,-1 -27,-2 -26,-4 -26,-5 -26,-7 -25,-8 -25,-10 -24,-11 -24,-12 -24,-14 -23,-15 -22,-17 -21,-17 -21,-19 -19,-20 -19,-21 -18,-23 -17,-23 -16,-24 -14,-25 -14,-26 -12,-26 -11,-28 -10,-27 -9,-29 -8,-29 -6,-29 -5,-29 -4,-30 -2,-30 -1,-30 z m 1778,1003 z M 9127,14715 Z"
                   id="path453"
                   inkscape:connector-curvature="0"
                   style="fill:#eeeeee;stroke:none" /><path
                   d="m 9128,15745 2,51 4,51 6,50 8,51 11,49 13,49 14,48 17,48 19,46 21,45 23,44 25,42 27,41 29,39 30,38 32,36 33,34 35,32 36,30 37,28 39,25 39,24 41,21 42,19 42,16 43,14 43,12 44,8 45,7 44,4 45,1 45,-1 44,-4 45,-7 44,-8 43,-12 43,-14 42,-16 42,-19 41,-21 39,-24 39,-25 37,-28 36,-30 35,-32 33,-34 32,-36 30,-38 29,-39 27,-41 25,-42 23,-44 21,-45 19,-46 17,-48 14,-48 13,-49 11,-49 8,-51 6,-50 4,-51 2,-51 -364,-5 -1,30 -2,30 -4,30 -5,29 -6,29 -8,29 -9,29 -10,27 -11,28 -12,26 -14,26 -14,25 -16,24 -17,23 -18,23 -19,21 -19,20 -21,19 -21,17 -22,17 -23,15 -24,14 -24,12 -24,11 -25,10 -25,8 -26,7 -26,5 -26,4 -27,2 -26,1 -26,-1 -27,-2 -26,-4 -26,-5 -26,-7 -25,-8 -25,-10 -24,-11 -24,-12 -24,-14 -23,-15 -22,-17 -21,-17 -21,-19 -19,-20 -19,-21 -18,-23 -17,-23 -16,-24 -14,-25 -14,-26 -12,-26 -11,-28 -10,-27 -9,-29 -8,-29 -6,-29 -5,-29 -4,-30 -2,-30 -1,-30 z"
                   id="path455"
                   inkscape:connector-curvature="0"
                   style="fill:none;stroke:#eeeeee" /><path
                   d="M 10906,16748 Z"
                   id="path457"
                   inkscape:connector-curvature="0"
                   style="fill:none;stroke:#eeeeee" /><path
                   d="M 9127,14715 Z"
                   id="path459"
                   inkscape:connector-curvature="0"
                   style="fill:none;stroke:#eeeeee" /></g></g></g></g></g></g></g></svg>