<?xml version="1.0" encoding="UTF-8" standalone="no"?>
<svg
   xmlns:ooo="http://xml.openoffice.org/svg/export"
   xmlns:dc="http://purl.org/dc/elements/1.1/"
   xmlns:cc="http://creativecommons.org/ns#"
   xmlns:rdf="http://www.w3.org/1999/02/22-rdf-syntax-ns#"
   xmlns:svg="http://www.w3.org/2000/svg"
   xmlns="http://www.w3.org/2000/svg"
   xmlns:sodipodi="http://sodipodi.sourceforge.net/DTD/sodipodi-0.dtd"
   xmlns:inkscape="http://www.inkscape.org/namespaces/inkscape"
   version="1.2"
   width="108.23222mm"
   height="106.96222mm"
   viewBox="0 0 10823.223 10696.222"
   preserveAspectRatio="xMidYMid"
   xml:space="preserve"
   id="svg1571"
   sodipodi:docname="climate_bad.svg"
   style="fill-rule:evenodd;stroke-width:28.22200012;stroke-linejoin:round"
   inkscape:version="0.92.1 r"><metadata
     id="metadata1575"><rdf:RDF><cc:Work
         rdf:about=""><dc:format>image/svg+xml</dc:format><dc:type
           rdf:resource="http://purl.org/dc/dcmitype/StillImage" /></cc:Work></rdf:RDF></metadata><sodipodi:namedview
     pagecolor="#ffffff"
     bordercolor="#666666"
     borderopacity="1"
     objecttolerance="10"
     gridtolerance="10"
     guidetolerance="10"
     inkscape:pageopacity="0"
     inkscape:pageshadow="2"
     inkscape:window-width="2560"
     inkscape:window-height="1391"
     id="namedview1573"
     showgrid="false"
     inkscape:zoom="0.22348485"
     inkscape:cx="-967.65126"
     inkscape:cy="115.12862"
     inkscape:window-x="0"
     inkscape:window-y="49"
     inkscape:window-maximized="0"
     inkscape:current-layer="svg1571" /><defs
     class="ClipPathGroup"
     id="defs1399"><clipPath
       id="presentation_clip_path"
       clipPathUnits="userSpaceOnUse"><rect
         x="0"
         y="0"
         width="21590"
         height="27940"
         id="rect1393" /></clipPath><clipPath
       id="presentation_clip_path_shrink"
       clipPathUnits="userSpaceOnUse"><rect
         x="21"
         y="27"
         width="21547"
         height="27885"
         id="rect1396" /></clipPath></defs><defs
     class="TextShapeIndex"
     id="defs1403"><g
       ooo:slide="id1"
       ooo:id-list="id3 id4 id5 id6 id7"
       id="g1401" /></defs><defs
     class="EmbeddedBulletChars"
     id="defs1435"><g
       id="bullet-char-template(57356)"
       transform="matrix(4.8828125e-4,0,0,-4.8828125e-4,0,0)"><path
         d="M 580,1141 1163,571 580,0 -4,571 Z"
         id="path1405"
         inkscape:connector-curvature="0" /></g><g
       id="bullet-char-template(57354)"
       transform="matrix(4.8828125e-4,0,0,-4.8828125e-4,0,0)"><path
         d="M 8,1128 H 1137 V 0 H 8 Z"
         id="path1408"
         inkscape:connector-curvature="0" /></g><g
       id="bullet-char-template(10146)"
       transform="matrix(4.8828125e-4,0,0,-4.8828125e-4,0,0)"><path
         d="M 174,0 602,739 174,1481 1456,739 Z M 1358,739 309,1346 659,739 Z"
         id="path1411"
         inkscape:connector-curvature="0" /></g><g
       id="bullet-char-template(10132)"
       transform="matrix(4.8828125e-4,0,0,-4.8828125e-4,0,0)"><path
         d="M 2015,739 1276,0 H 717 l 543,543 H 174 v 393 h 1086 l -543,545 h 557 z"
         id="path1414"
         inkscape:connector-curvature="0" /></g><g
       id="bullet-char-template(10007)"
       transform="matrix(4.8828125e-4,0,0,-4.8828125e-4,0,0)"><path
         d="m 0,-2 c -7,16 -16,29 -25,39 l 381,530 c -94,256 -141,385 -141,387 0,25 13,38 40,38 9,0 21,-2 34,-5 21,4 42,12 65,25 l 27,-13 111,-251 280,301 64,-25 24,25 c 21,-10 41,-24 62,-43 C 886,937 835,863 770,784 769,783 710,716 594,584 L 774,223 c 0,-27 -21,-55 -63,-84 l 16,-20 C 717,90 699,76 672,76 641,76 570,178 457,381 L 164,-76 c -22,-34 -53,-51 -92,-51 -42,0 -63,17 -64,51 -7,9 -10,24 -10,44 0,9 1,19 2,30 z"
         id="path1417"
         inkscape:connector-curvature="0" /></g><g
       id="bullet-char-template(10004)"
       transform="matrix(4.8828125e-4,0,0,-4.8828125e-4,0,0)"><path
         d="M 285,-33 C 182,-33 111,30 74,156 52,228 41,333 41,471 c 0,78 14,145 41,201 34,71 87,106 158,106 53,0 88,-31 106,-94 l 23,-176 c 8,-64 28,-97 59,-98 l 735,706 c 11,11 33,17 66,17 42,0 63,-15 63,-46 V 965 c 0,-36 -10,-64 -30,-84 L 442,47 C 390,-6 338,-33 285,-33 Z"
         id="path1420"
         inkscape:connector-curvature="0" /></g><g
       id="bullet-char-template(9679)"
       transform="matrix(4.8828125e-4,0,0,-4.8828125e-4,0,0)"><path
         d="M 813,0 C 632,0 489,54 383,161 276,268 223,411 223,592 c 0,181 53,324 160,431 106,107 249,161 430,161 179,0 323,-54 432,-161 108,-107 162,-251 162,-431 0,-180 -54,-324 -162,-431 C 1136,54 992,0 813,0 Z"
         id="path1423"
         inkscape:connector-curvature="0" /></g><g
       id="bullet-char-template(8226)"
       transform="matrix(4.8828125e-4,0,0,-4.8828125e-4,0,0)"><path
         d="m 346,457 c -73,0 -137,26 -191,78 -54,51 -81,114 -81,188 0,73 27,136 81,188 54,52 118,78 191,78 73,0 134,-26 185,-79 51,-51 77,-114 77,-187 0,-75 -25,-137 -76,-188 -50,-52 -112,-78 -186,-78 z"
         id="path1426"
         inkscape:connector-curvature="0" /></g><g
       id="bullet-char-template(8211)"
       transform="matrix(4.8828125e-4,0,0,-4.8828125e-4,0,0)"><path
         d="M -4,459 H 1135 V 606 H -4 Z"
         id="path1429"
         inkscape:connector-curvature="0" /></g><g
       id="bullet-char-template(61548)"
       transform="matrix(4.8828125e-4,0,0,-4.8828125e-4,0,0)"><path
         d="m 173,740 c 0,163 58,303 173,419 116,115 255,173 419,173 163,0 302,-58 418,-173 116,-116 174,-256 174,-419 0,-163 -58,-303 -174,-418 C 1067,206 928,148 765,148 601,148 462,206 346,322 231,437 173,577 173,740 Z"
         id="path1432"
         inkscape:connector-curvature="0" /></g></defs><defs
     class="TextEmbeddedBitmaps"
     id="defs1437" /><g
     id="g1442"
     transform="translate(-5556.889,-6319.889)"><g
       id="id2"
       class="Master_Slide"><g
         id="bg-id2"
         class="Background" /><g
         id="bo-id2"
         class="BackgroundObjects" /></g></g><g
     class="SlideGroup"
     id="g1569"
     transform="translate(-5556.889,-6319.889)"><g
       id="g1567"><g
         id="container-id1"><g
           id="id1"
           class="Slide"
           clip-path="url(#presentation_clip_path)"><g
             class="Page"
             id="g1563"><g
               class="com.sun.star.drawing.CustomShape"
               id="g1455"><g
                 id="id3"><rect
                   class="BoundingBox"
                   x="5570"
                   y="6333"
                   width="10799"
                   height="10672"
                   id="rect1444"
                   style="fill:none;stroke:none" /><path
                   d="m 10968,6334 c 3060,0 5398,2310 5398,5334 0,3024 -2338,5334 -5398,5334 -3060,0 -5397,-2310 -5397,-5334 0,-3024 2337,-5334 5397,-5334 z m -5397,0 z m 10796,10669 z"
                   id="path1446"
                   inkscape:connector-curvature="0"
                   style="fill:#adadad;stroke:none" /><path
                   d="m 10968,6334 c 3060,0 5398,2310 5398,5334 0,3024 -2338,5334 -5398,5334 -3060,0 -5397,-2310 -5397,-5334 0,-3024 2337,-5334 5397,-5334 z"
                   id="path1448"
                   inkscape:connector-curvature="0"
                   style="fill:none;stroke:#adadad" /><path
                   d="M 5571,6334 Z"
                   id="path1450"
                   inkscape:connector-curvature="0"
                   style="fill:none;stroke:#adadad" /><path
                   d="M 16367,17003 Z"
                   id="path1452"
                   inkscape:connector-curvature="0"
                   style="fill:none;stroke:#adadad" /></g></g><g
               class="com.sun.star.drawing.CustomShape"
               id="g1534"><g
                 id="id4"><rect
                   class="BoundingBox"
                   x="7856"
                   y="7984"
                   width="6227"
                   height="4830"
                   id="rect1457"
                   style="fill:none;stroke:none" /><path
                   d="m 8413,9585 c -116,-597 423,-1160 962,-1160 170,-5 346,53 490,141 138,-271 395,-436 683,-436 191,9 395,89 539,234 103,-239 322,-379 559,-379 198,0 380,102 495,259 133,-161 332,-259 539,-259 337,0 623,252 683,605 326,98 562,418 562,784 0,112 -17,220 -66,322 138,179 222,400 222,626 0,512 -372,943 -851,1017 0,489 -368,874 -829,874 -159,0 -309,-47 -441,-137 -121,432 -505,736 -934,736 -320,0 -622,-182 -804,-468 -170,110 -80,175 -567,175 -401,0 -770,-226 -963,-592 -461,-9 -697,-300 -697,-666 0,-170 60,-324 170,-452 -199,-107 -308,-319 -308,-563 0,-342 242,-623 556,-661 z M 7857,7985 Z m 6224,4827 z"
                   id="path1459"
                   inkscape:connector-curvature="0"
                   style="fill:#eeeeee;stroke:none" /><path
                   d="m 8413,9585 c -116,-597 423,-1160 962,-1160 170,-5 346,53 490,141 138,-271 395,-436 683,-436 191,9 395,89 539,234 103,-239 322,-379 559,-379 198,0 380,102 495,259 133,-161 332,-259 539,-259 337,0 623,252 683,605 326,98 562,418 562,784 0,112 -17,220 -66,322 138,179 222,400 222,626 0,512 -372,943 -851,1017 0,489 -368,874 -829,874 -159,0 -309,-47 -441,-137 -121,432 -505,736 -934,736 -320,0 -622,-182 -804,-468 -170,110 -80,175 -567,175 -401,0 -770,-226 -963,-592 -461,-9 -697,-300 -697,-666 0,-170 60,-324 170,-452 -199,-107 -308,-319 -308,-563 0,-342 242,-623 556,-661 z"
                   id="path1461"
                   inkscape:connector-curvature="0"
                   style="fill:none;stroke:#adadad" /><path
                   d="M 7857,7985 Z"
                   id="path1463"
                   inkscape:connector-curvature="0"
                   style="fill:none;stroke:#adadad" /><path
                   d="M 14081,12812 Z"
                   id="path1465"
                   inkscape:connector-curvature="0"
                   style="fill:none;stroke:#adadad" /><path
                   d="m 8413,9585 c 5,55 31,118 46,169"
                   id="path1467"
                   inkscape:connector-curvature="0"
                   style="fill:none;stroke:#adadad" /><path
                   d="M 7857,7985 Z"
                   id="path1469"
                   inkscape:connector-curvature="0"
                   style="fill:none;stroke:#adadad" /><path
                   d="M 14081,12812 Z"
                   id="path1471"
                   inkscape:connector-curvature="0"
                   style="fill:none;stroke:#adadad" /><path
                   d="m 9865,8566 c 66,42 147,100 202,158"
                   id="path1473"
                   inkscape:connector-curvature="0"
                   style="fill:none;stroke:#adadad" /><path
                   d="M 7857,7985 Z"
                   id="path1475"
                   inkscape:connector-curvature="0"
                   style="fill:none;stroke:#adadad" /><path
                   d="M 14081,12812 Z"
                   id="path1477"
                   inkscape:connector-curvature="0"
                   style="fill:none;stroke:#adadad" /><path
                   d="m 11087,8364 c -23,47 -38,103 -52,157"
                   id="path1479"
                   inkscape:connector-curvature="0"
                   style="fill:none;stroke:#adadad" /><path
                   d="M 7857,7985 Z"
                   id="path1481"
                   inkscape:connector-curvature="0"
                   style="fill:none;stroke:#adadad" /><path
                   d="M 14081,12812 Z"
                   id="path1483"
                   inkscape:connector-curvature="0"
                   style="fill:none;stroke:#adadad" /><path
                   d="m 12141,8244 c -43,53 -66,125 -95,190"
                   id="path1485"
                   inkscape:connector-curvature="0"
                   style="fill:none;stroke:#adadad" /><path
                   d="M 7857,7985 Z"
                   id="path1487"
                   inkscape:connector-curvature="0"
                   style="fill:none;stroke:#adadad" /><path
                   d="M 14081,12812 Z"
                   id="path1489"
                   inkscape:connector-curvature="0"
                   style="fill:none;stroke:#adadad" /><path
                   d="m 13363,8590 c 6,40 35,130 23,150"
                   id="path1491"
                   inkscape:connector-curvature="0"
                   style="fill:none;stroke:#adadad" /><path
                   d="M 7857,7985 Z"
                   id="path1493"
                   inkscape:connector-curvature="0"
                   style="fill:none;stroke:#adadad" /><path
                   d="M 14081,12812 Z"
                   id="path1495"
                   inkscape:connector-curvature="0"
                   style="fill:none;stroke:#adadad" /><path
                   d="m 13859,9696 c -49,114 -116,215 -208,298"
                   id="path1497"
                   inkscape:connector-curvature="0"
                   style="fill:none;stroke:#adadad" /><path
                   d="M 7857,7985 Z"
                   id="path1499"
                   inkscape:connector-curvature="0"
                   style="fill:none;stroke:#adadad" /><path
                   d="M 14081,12812 Z"
                   id="path1501"
                   inkscape:connector-curvature="0"
                   style="fill:none;stroke:#adadad" /><path
                   d="m 13233,11339 c 23,-181 -109,-628 -478,-796"
                   id="path1503"
                   inkscape:connector-curvature="0"
                   style="fill:none;stroke:#adadad" /><path
                   d="M 7857,7985 Z"
                   id="path1505"
                   inkscape:connector-curvature="0"
                   style="fill:none;stroke:#adadad" /><path
                   d="M 14081,12812 Z"
                   id="path1507"
                   inkscape:connector-curvature="0"
                   style="fill:none;stroke:#adadad" /><path
                   d="m 11960,12076 c 23,-73 31,-141 37,-212"
                   id="path1509"
                   inkscape:connector-curvature="0"
                   style="fill:none;stroke:#adadad" /><path
                   d="M 7857,7985 Z"
                   id="path1511"
                   inkscape:connector-curvature="0"
                   style="fill:none;stroke:#adadad" /><path
                   d="M 14081,12812 Z"
                   id="path1513"
                   inkscape:connector-curvature="0"
                   style="fill:none;stroke:#adadad" /><path
                   d="m 10225,12344 c -46,-58 -75,-125 -104,-194"
                   id="path1515"
                   inkscape:connector-curvature="0"
                   style="fill:none;stroke:#adadad" /><path
                   d="M 7857,7985 Z"
                   id="path1517"
                   inkscape:connector-curvature="0"
                   style="fill:none;stroke:#adadad" /><path
                   d="M 14081,12812 Z"
                   id="path1519"
                   inkscape:connector-curvature="0"
                   style="fill:none;stroke:#adadad" /><path
                   d="m 8692,11927 c 55,-9 110,-23 161,-43"
                   id="path1521"
                   inkscape:connector-curvature="0"
                   style="fill:none;stroke:#adadad" /><path
                   d="M 7857,7985 Z"
                   id="path1523"
                   inkscape:connector-curvature="0"
                   style="fill:none;stroke:#adadad" /><path
                   d="M 14081,12812 Z"
                   id="path1525"
                   inkscape:connector-curvature="0"
                   style="fill:none;stroke:#adadad" /><path
                   d="m 8165,10809 c 95,58 204,110 363,90"
                   id="path1527"
                   inkscape:connector-curvature="0"
                   style="fill:none;stroke:#adadad" /><path
                   d="M 7857,7985 Z"
                   id="path1529"
                   inkscape:connector-curvature="0"
                   style="fill:none;stroke:#adadad" /><path
                   d="M 14081,12812 Z"
                   id="path1531"
                   inkscape:connector-curvature="0"
                   style="fill:none;stroke:#adadad" /></g></g><g
               class="com.sun.star.drawing.CustomShape"
               id="g1543"><g
                 id="id5"><rect
                   class="BoundingBox"
                   x="8491"
                   y="12809"
                   width="1552"
                   height="2315"
                   id="rect1536"
                   style="fill:none;stroke:none" /><path
                   d="m 8545,15088 -53,-34 1442,-2244 107,69 -1442,2243 z"
                   id="path1538"
                   inkscape:connector-curvature="0"
                   style="fill:#eeeeee;stroke:none" /><path
                   d="m 8545,15088 -53,-34 1442,-2244 107,69 -1442,2243 z"
                   id="path1540"
                   inkscape:connector-curvature="0"
                   style="fill:none;stroke:#adadad" /></g></g><g
               class="com.sun.star.drawing.CustomShape"
               id="g1552"><g
                 id="id6"><rect
                   class="BoundingBox"
                   x="9643"
                   y="13156"
                   width="1552"
                   height="2315"
                   id="rect1545"
                   style="fill:none;stroke:none" /><path
                   d="m 9697,15435 -53,-34 1442,-2244 107,69 -1442,2243 z"
                   id="path1547"
                   inkscape:connector-curvature="0"
                   style="fill:#eeeeee;stroke:none" /><path
                   d="m 9697,15435 -53,-34 1442,-2244 107,69 -1442,2243 z"
                   id="path1549"
                   inkscape:connector-curvature="0"
                   style="fill:none;stroke:#adadad" /></g></g><g
               class="com.sun.star.drawing.CustomShape"
               id="g1561"><g
                 id="id7"><rect
                   class="BoundingBox"
                   x="11260"
                   y="12682"
                   width="1552"
                   height="2315"
                   id="rect1554"
                   style="fill:none;stroke:none" /><path
                   d="m 11314,14961 -53,-34 1442,-2244 107,69 -1442,2243 z"
                   id="path1556"
                   inkscape:connector-curvature="0"
                   style="fill:#eeeeee;stroke:none" /><path
                   d="m 11314,14961 -53,-34 1442,-2244 107,69 -1442,2243 z"
                   id="path1558"
                   inkscape:connector-curvature="0"
                   style="fill:none;stroke:#adadad" /></g></g></g></g></g></g></g></svg>