<?xml version="1.0" encoding="UTF-8"?>
<!DOCTYPE svg PUBLIC "-//W3C//DTD SVG 1.1//EN" "http://www.w3.org/Graphics/SVG/1.1/DTD/svg11.dtd">
<svg version="1.2" width="135.29mm" height="133.7mm" viewBox="0 0 13529 13370" preserveAspectRatio="xMidYMid" fill-rule="evenodd" stroke-width="28.222" stroke-linejoin="round" xmlns="http://www.w3.org/2000/svg" xmlns:ooo="http://xml.openoffice.org/svg/export" xmlns:xlink="http://www.w3.org/1999/xlink" xmlns:presentation="http://sun.com/xmlns/staroffice/presentation" xmlns:smil="http://www.w3.org/2001/SMIL20/" xmlns:anim="urn:oasis:names:tc:opendocument:xmlns:animation:1.0" xml:space="preserve">
 <defs class="ClipPathGroup">
  <clipPath id="presentation_clip_path" clipPathUnits="userSpaceOnUse">
   <rect x="0" y="0" width="13529" height="13370"/>
  </clipPath>
  <clipPath id="presentation_clip_path_shrink" clipPathUnits="userSpaceOnUse">
   <rect x="13" y="13" width="13502" height="13344"/>
  </clipPath>
 </defs>
 <defs class="TextShapeIndex">
  <g ooo:slide="id1" ooo:id-list="id3 id4 id5 id6 id7 id8 id9 id10 id11 id12 id13 id14 id15 id16 id17 id18 id19 id20 id21 id22 id23 id24 id25 id26 id27 id28 id29 id30 id31 id32 id33 id34 id35 id36"/>
 </defs>
 <defs class="EmbeddedBulletChars">
  <g id="bullet-char-template(57356)" transform="scale(0.00048828125,-0.00048828125)">
   <path d="M 580,1141 L 1163,571 580,0 -4,571 580,1141 Z"/>
  </g>
  <g id="bullet-char-template(57354)" transform="scale(0.00048828125,-0.00048828125)">
   <path d="M 8,1128 L 1137,1128 1137,0 8,0 8,1128 Z"/>
  </g>
  <g id="bullet-char-template(10146)" transform="scale(0.00048828125,-0.00048828125)">
   <path d="M 174,0 L 602,739 174,1481 1456,739 174,0 Z M 1358,739 L 309,1346 659,739 1358,739 Z"/>
  </g>
  <g id="bullet-char-template(10132)" transform="scale(0.00048828125,-0.00048828125)">
   <path d="M 2015,739 L 1276,0 717,0 1260,543 174,543 174,936 1260,936 717,1481 1274,1481 2015,739 Z"/>
  </g>
  <g id="bullet-char-template(10007)" transform="scale(0.00048828125,-0.00048828125)">
   <path d="M 0,-2 C -7,14 -16,27 -25,37 L 356,567 C 262,823 215,952 215,954 215,979 228,992 255,992 264,992 276,990 289,987 310,991 331,999 354,1012 L 381,999 492,748 772,1049 836,1024 860,1049 C 881,1039 901,1025 922,1006 886,937 835,863 770,784 769,783 710,716 594,584 L 774,223 C 774,196 753,168 711,139 L 727,119 C 717,90 699,76 672,76 641,76 570,178 457,381 L 164,-76 C 142,-110 111,-127 72,-127 30,-127 9,-110 8,-76 1,-67 -2,-52 -2,-32 -2,-23 -1,-13 0,-2 Z"/>
  </g>
  <g id="bullet-char-template(10004)" transform="scale(0.00048828125,-0.00048828125)">
   <path d="M 285,-33 C 182,-33 111,30 74,156 52,228 41,333 41,471 41,549 55,616 82,672 116,743 169,778 240,778 293,778 328,747 346,684 L 369,508 C 377,444 397,411 428,410 L 1163,1116 C 1174,1127 1196,1133 1229,1133 1271,1133 1292,1118 1292,1087 L 1292,965 C 1292,929 1282,901 1262,881 L 442,47 C 390,-6 338,-33 285,-33 Z"/>
  </g>
  <g id="bullet-char-template(9679)" transform="scale(0.00048828125,-0.00048828125)">
   <path d="M 813,0 C 632,0 489,54 383,161 276,268 223,411 223,592 223,773 276,916 383,1023 489,1130 632,1184 813,1184 992,1184 1136,1130 1245,1023 1353,916 1407,772 1407,592 1407,412 1353,268 1245,161 1136,54 992,0 813,0 Z"/>
  </g>
  <g id="bullet-char-template(8226)" transform="scale(0.00048828125,-0.00048828125)">
   <path d="M 346,457 C 273,457 209,483 155,535 101,586 74,649 74,723 74,796 101,859 155,911 209,963 273,989 346,989 419,989 480,963 531,910 582,859 608,796 608,723 608,648 583,586 532,535 482,483 420,457 346,457 Z"/>
  </g>
  <g id="bullet-char-template(8211)" transform="scale(0.00048828125,-0.00048828125)">
   <path d="M -4,459 L 1135,459 1135,606 -4,606 -4,459 Z"/>
  </g>
  <g id="bullet-char-template(61548)" transform="scale(0.00048828125,-0.00048828125)">
   <path d="M 173,740 C 173,903 231,1043 346,1159 462,1274 601,1332 765,1332 928,1332 1067,1274 1183,1159 1299,1043 1357,903 1357,740 1357,577 1299,437 1183,322 1067,206 928,148 765,148 601,148 462,206 346,322 231,437 173,577 173,740 Z"/>
  </g>
 </defs>
 <defs class="TextEmbeddedBitmaps"/>
 <g>
  <g id="id2" class="Master_Slide">
   <g id="bg-id2" class="Background"/>
   <g id="bo-id2" class="BackgroundObjects"/>
  </g>
 </g>
 <g class="SlideGroup">
  <g>
   <g id="container-id1">
    <g id="id1" class="Slide" clip-path="url(#presentation_clip_path)">
     <g class="Page">
      <g class="com.sun.star.drawing.PolyPolygonShape">
       <g id="id3">
        <rect class="BoundingBox" stroke="none" fill="none" x="16" y="16" width="13501" height="13342"/>
       </g>
      </g>
      <g class="com.sun.star.drawing.ClosedBezierShape">
       <g id="id4">
        <rect class="BoundingBox" stroke="none" fill="none" x="17" y="18" width="13498" height="13339"/>
        <path fill="rgb(173,173,173)" stroke="none" d="M 6765,18 C 10590,18 13513,2906 13513,6686 13513,10466 10590,13354 6765,13354 2939,13354 18,10466 18,6686 18,2906 2939,18 6765,18 Z M 18,18 L 18,18 Z M 13514,13355 L 13514,13355 Z"/>
       </g>
      </g>
      <g class="com.sun.star.drawing.ClosedBezierShape">
       <g id="id5">
        <rect class="BoundingBox" stroke="none" fill="none" x="0" y="0" width="13532" height="13373"/>
        <path fill="none" stroke="rgb(173,173,173)" stroke-width="35" stroke-linejoin="round" d="M 6765,18 C 10590,18 13513,2906 13513,6686 13513,10466 10590,13354 6765,13354 2939,13354 18,10466 18,6686 18,2906 2939,18 6765,18 Z"/>
       </g>
      </g>
      <g class="com.sun.star.drawing.PolyPolygonShape">
       <g id="id6">
        <rect class="BoundingBox" stroke="none" fill="none" x="0" y="0" width="37" height="37"/>
       </g>
      </g>
      <g class="com.sun.star.drawing.PolyPolygonShape">
       <g id="id7">
        <rect class="BoundingBox" stroke="none" fill="none" x="13495" y="13336" width="37" height="37"/>
       </g>
      </g>
      <g class="com.sun.star.drawing.PolyPolygonShape">
       <g id="id8">
        <rect class="BoundingBox" stroke="none" fill="none" x="2558" y="5255" width="4451" height="5721"/>
       </g>
      </g>
      <g class="com.sun.star.drawing.ClosedBezierShape">
       <g id="id9">
        <rect class="BoundingBox" stroke="none" fill="none" x="2559" y="5255" width="4447" height="5718"/>
        <path fill="rgb(0,127,255)" stroke="none" d="M 2559,10972 C 2559,10952 2559,10934 2559,10916 2559,9873 2653,8988 2857,8085 3062,7184 3317,6535 3670,6014 4024,5494 4373,5256 4782,5256 5191,5256 5540,5494 5893,6014 6247,6535 6502,7184 6707,8085 6911,8988 7005,9873 7005,10916 7005,10928 7005,10939 7005,10953 L 2559,10972 Z"/>
       </g>
      </g>
      <g class="com.sun.star.drawing.ClosedBezierShape">
       <g id="id10">
        <rect class="BoundingBox" stroke="none" fill="none" x="2541" y="5238" width="4483" height="5753"/>
        <path fill="none" stroke="rgb(173,173,173)" stroke-width="35" stroke-linejoin="round" d="M 2559,10972 C 2559,10952 2559,10934 2559,10916 2559,9873 2653,8988 2857,8085 3062,7184 3317,6535 3670,6014 4024,5494 4373,5256 4782,5256 5191,5256 5540,5494 5893,6014 6247,6535 6502,7184 6707,8085 6911,8988 7005,9873 7005,10916 7005,10928 7005,10939 7005,10953 L 2559,10972 Z"/>
       </g>
      </g>
      <g class="com.sun.star.drawing.PolyPolygonShape">
       <g id="id11">
        <rect class="BoundingBox" stroke="none" fill="none" x="3509" y="2873" width="2706" height="2706"/>
       </g>
      </g>
      <g class="com.sun.star.drawing.ClosedBezierShape">
       <g id="id12">
        <rect class="BoundingBox" stroke="none" fill="none" x="3510" y="2874" width="2702" height="2702"/>
        <path fill="rgb(128,128,128)" stroke="none" d="M 4859,2874 C 5625,2874 6210,3458 6210,4223 6210,4989 5625,5574 4859,5574 4094,5574 3510,4989 3510,4223 3510,3458 4094,2874 4859,2874 Z M 3510,2874 L 3510,2874 Z M 6211,5575 L 6211,5575 Z"/>
       </g>
      </g>
      <g class="com.sun.star.drawing.ClosedBezierShape">
       <g id="id13">
        <rect class="BoundingBox" stroke="none" fill="none" x="3492" y="2856" width="2737" height="2737"/>
        <path fill="none" stroke="rgb(173,173,173)" stroke-width="35" stroke-linejoin="round" d="M 4859,2874 C 5625,2874 6210,3458 6210,4223 6210,4989 5625,5574 4859,5574 4094,5574 3510,4989 3510,4223 3510,3458 4094,2874 4859,2874 Z"/>
       </g>
      </g>
      <g class="com.sun.star.drawing.PolyPolygonShape">
       <g id="id14">
        <rect class="BoundingBox" stroke="none" fill="none" x="3492" y="2856" width="37" height="37"/>
       </g>
      </g>
      <g class="com.sun.star.drawing.PolyPolygonShape">
       <g id="id15">
        <rect class="BoundingBox" stroke="none" fill="none" x="6192" y="5556" width="37" height="37"/>
       </g>
      </g>
      <g class="com.sun.star.drawing.PolyPolygonShape">
       <g id="id16">
        <rect class="BoundingBox" stroke="none" fill="none" x="8431" y="3509" width="641" height="1276"/>
       </g>
      </g>
      <g class="com.sun.star.drawing.PolyPolygonShape">
       <g id="id17">
        <rect class="BoundingBox" stroke="none" fill="none" x="8415" y="3492" width="673" height="1308"/>
        <path fill="none" stroke="rgb(173,173,173)" stroke-width="35" stroke-linejoin="round" d="M 8751,4781 L 8433,4781 8433,3510 9069,3510 9069,4781 8751,4781 Z"/>
       </g>
      </g>
      <g class="com.sun.star.drawing.PolyPolygonShape">
       <g id="id18">
        <rect class="BoundingBox" stroke="none" fill="none" x="7635" y="1920" width="2072" height="2071"/>
       </g>
      </g>
      <g class="com.sun.star.drawing.PolyPolygonShape">
       <g id="id19">
        <rect class="BoundingBox" stroke="none" fill="none" x="7620" y="1903" width="37" height="37"/>
       </g>
      </g>
      <g class="com.sun.star.drawing.PolyPolygonShape">
       <g id="id20">
        <rect class="BoundingBox" stroke="none" fill="none" x="9685" y="3968" width="37" height="37"/>
       </g>
      </g>
      <g class="com.sun.star.drawing.PolyPolygonShape">
       <g id="id21">
        <rect class="BoundingBox" stroke="none" fill="none" x="7001" y="2874" width="1435" height="1593"/>
       </g>
      </g>
      <g class="com.sun.star.drawing.PolyPolygonShape">
       <g id="id22">
        <rect class="BoundingBox" stroke="none" fill="none" x="7003" y="2875" width="1431" height="1590"/>
        <path fill="rgb(173,173,173)" stroke="none" d="M 7719,4464 L 7003,4464 7003,2875 8433,2875 8433,4464 7719,4464 Z"/>
       </g>
      </g>
      <g class="com.sun.star.drawing.PolyPolygonShape">
       <g id="id23">
        <rect class="BoundingBox" stroke="none" fill="none" x="6985" y="2857" width="1467" height="1626"/>
        <path fill="none" stroke="rgb(173,173,173)" stroke-width="35" stroke-linejoin="round" d="M 7719,4464 L 7003,4464 7003,2875 8433,2875 8433,4464 7719,4464 Z"/>
       </g>
      </g>
      <g class="com.sun.star.drawing.PolyPolygonShape">
       <g id="id24">
        <rect class="BoundingBox" stroke="none" fill="none" x="7078" y="2545" width="1517" height="1603"/>
       </g>
      </g>
      <g class="com.sun.star.drawing.PolyPolygonShape">
       <g id="id25">
        <rect class="BoundingBox" stroke="none" fill="none" x="7079" y="2548" width="1513" height="1598"/>
        <path fill="rgb(173,173,173)" stroke="none" d="M 7594,3935 L 7079,3724 7562,2548 8591,2970 8108,4145 7594,3935 Z"/>
       </g>
      </g>
      <g class="com.sun.star.drawing.PolyPolygonShape">
       <g id="id26">
        <rect class="BoundingBox" stroke="none" fill="none" x="7061" y="2530" width="1549" height="1634"/>
        <path fill="none" stroke="rgb(173,173,173)" stroke-width="35" stroke-linejoin="round" d="M 7594,3935 L 7079,3724 7562,2548 8591,2970 8108,4145 7594,3935 Z"/>
       </g>
      </g>
      <g class="com.sun.star.drawing.PolyPolygonShape">
       <g id="id27">
        <rect class="BoundingBox" stroke="none" fill="none" x="8360" y="4926" width="802" height="801"/>
       </g>
      </g>
      <g class="com.sun.star.drawing.ClosedBezierShape">
       <g id="id28">
        <rect class="BoundingBox" stroke="none" fill="none" x="8343" y="4910" width="832" height="832"/>
        <path fill="none" stroke="rgb(173,173,173)" stroke-width="35" stroke-linejoin="round" d="M 8758,4928 C 8983,4928 9156,5099 9156,5325 9156,5550 8983,5723 8758,5723 8532,5723 8361,5550 8361,5325 8361,5099 8532,4928 8758,4928 Z"/>
       </g>
      </g>
      <g class="com.sun.star.drawing.PolyPolygonShape">
       <g id="id29">
        <rect class="BoundingBox" stroke="none" fill="none" x="8343" y="4910" width="37" height="37"/>
       </g>
      </g>
      <g class="com.sun.star.drawing.PolyPolygonShape">
       <g id="id30">
        <rect class="BoundingBox" stroke="none" fill="none" x="9138" y="5705" width="37" height="37"/>
       </g>
      </g>
      <g class="com.sun.star.drawing.CustomShape">
       <g id="id31">
        <rect class="BoundingBox" stroke="none" fill="none" x="9016" y="4189" width="765" height="892"/>
        <path fill="rgb(128,128,128)" stroke="none" d="M 9398,5079 L 9017,5079 9017,4190 9779,4190 9779,5079 9398,5079 Z"/>
        <path fill="none" stroke="rgb(128,128,128)" d="M 9398,5079 L 9017,5079 9017,4190 9779,4190 9779,5079 9398,5079 Z"/>
       </g>
      </g>
      <g class="com.sun.star.drawing.CustomShape">
       <g id="id32">
        <rect class="BoundingBox" stroke="none" fill="none" x="8299" y="2364" width="2163" height="2083"/>
        <path fill="rgb(255,255,0)" stroke="none" d="M 9379,2365 C 9991,2365 10459,2815 10459,3404 10459,3993 9991,4444 9379,4444 8767,4444 8300,3993 8300,3404 8300,2815 8767,2365 9379,2365 Z M 8300,2365 L 8300,2365 Z M 10460,4445 L 10460,4445 Z"/>
        <path fill="none" stroke="rgb(238,238,238)" d="M 9379,2365 C 9991,2365 10459,2815 10459,3404 10459,3993 9991,4444 9379,4444 8767,4444 8300,3993 8300,3404 8300,2815 8767,2365 9379,2365 Z"/>
        <path fill="none" stroke="rgb(238,238,238)" d="M 8300,2365 L 8300,2365 Z"/>
        <path fill="none" stroke="rgb(238,238,238)" d="M 10460,4445 L 10460,4445 Z"/>
       </g>
      </g>
      <g class="com.sun.star.drawing.PolyLineShape">
       <g id="id33">
        <rect class="BoundingBox" stroke="none" fill="none" x="8889" y="3428" width="1019" height="1019"/>
        <path fill="none" stroke="rgb(0,0,0)" d="M 9144,4445 L 8890,3556 9017,3429 9144,3683 9271,3429 9398,3683 9525,3429 9652,3683 9779,3429 9906,3556 9652,4445"/>
       </g>
      </g>
      <g class="com.sun.star.drawing.LineShape">
       <g id="id34">
        <rect class="BoundingBox" stroke="none" fill="none" x="6958" y="2259" width="1198" height="690"/>
        <path fill="none" stroke="rgb(255,255,0)" stroke-width="53" stroke-linejoin="round" d="M 6985,2286 L 8128,2921"/>
       </g>
      </g>
      <g class="com.sun.star.drawing.LineShape">
       <g id="id35">
        <rect class="BoundingBox" stroke="none" fill="none" x="9371" y="735" width="55" height="1362"/>
        <path fill="none" stroke="rgb(255,255,0)" stroke-width="53" stroke-linejoin="round" d="M 9398,2069 L 9398,762"/>
       </g>
      </g>
      <g class="com.sun.star.drawing.LineShape">
       <g id="id36">
        <rect class="BoundingBox" stroke="none" fill="none" x="10690" y="2282" width="1017" height="589"/>
        <path fill="none" stroke="rgb(255,255,0)" stroke-width="53" stroke-linejoin="round" d="M 10717,2843 L 11679,2309"/>
       </g>
      </g>
     </g>
    </g>
   </g>
  </g>
 </g>
</svg>