<?xml version="1.0" encoding="UTF-8" standalone="no"?>
<svg
   xmlns:ooo="http://xml.openoffice.org/svg/export"
   xmlns:dc="http://purl.org/dc/elements/1.1/"
   xmlns:cc="http://creativecommons.org/ns#"
   xmlns:rdf="http://www.w3.org/1999/02/22-rdf-syntax-ns#"
   xmlns:svg="http://www.w3.org/2000/svg"
   xmlns="http://www.w3.org/2000/svg"
   xmlns:sodipodi="http://sodipodi.sourceforge.net/DTD/sodipodi-0.dtd"
   xmlns:inkscape="http://www.inkscape.org/namespaces/inkscape"
   version="1.2"
   width="108.23222mm"
   height="106.96222mm"
   viewBox="0 0 10823.223 10696.222"
   preserveAspectRatio="xMidYMid"
   xml:space="preserve"
   id="svg597"
   sodipodi:docname="software_bad.svg"
   style="fill-rule:evenodd;stroke-width:28.22200012;stroke-linejoin:round"
   inkscape:version="0.92.1 r"><metadata
     id="metadata601"><rdf:RDF><cc:Work
         rdf:about=""><dc:format>image/svg+xml</dc:format><dc:type
           rdf:resource="http://purl.org/dc/dcmitype/StillImage" /></cc:Work></rdf:RDF></metadata><sodipodi:namedview
     pagecolor="#ffffff"
     bordercolor="#666666"
     borderopacity="1"
     objecttolerance="10"
     gridtolerance="10"
     guidetolerance="10"
     inkscape:pageopacity="0"
     inkscape:pageshadow="2"
     inkscape:window-width="2560"
     inkscape:window-height="1391"
     id="namedview599"
     showgrid="false"
     inkscape:zoom="0.22348485"
     inkscape:cx="-967.65126"
     inkscape:cy="115.12862"
     inkscape:window-x="0"
     inkscape:window-y="49"
     inkscape:window-maximized="0"
     inkscape:current-layer="svg597" /><defs
     class="ClipPathGroup"
     id="defs461"><clipPath
       id="presentation_clip_path"
       clipPathUnits="userSpaceOnUse"><rect
         x="0"
         y="0"
         width="21590"
         height="27940"
         id="rect455" /></clipPath><clipPath
       id="presentation_clip_path_shrink"
       clipPathUnits="userSpaceOnUse"><rect
         x="21"
         y="27"
         width="21547"
         height="27885"
         id="rect458" /></clipPath></defs><defs
     class="TextShapeIndex"
     id="defs465"><g
       ooo:slide="id1"
       ooo:id-list="id3 id4 id5 id6 id7 id8 id9"
       id="g463" /></defs><defs
     class="EmbeddedBulletChars"
     id="defs497"><g
       id="bullet-char-template(57356)"
       transform="matrix(4.8828125e-4,0,0,-4.8828125e-4,0,0)"><path
         d="M 580,1141 1163,571 580,0 -4,571 Z"
         id="path467"
         inkscape:connector-curvature="0" /></g><g
       id="bullet-char-template(57354)"
       transform="matrix(4.8828125e-4,0,0,-4.8828125e-4,0,0)"><path
         d="M 8,1128 H 1137 V 0 H 8 Z"
         id="path470"
         inkscape:connector-curvature="0" /></g><g
       id="bullet-char-template(10146)"
       transform="matrix(4.8828125e-4,0,0,-4.8828125e-4,0,0)"><path
         d="M 174,0 602,739 174,1481 1456,739 Z M 1358,739 309,1346 659,739 Z"
         id="path473"
         inkscape:connector-curvature="0" /></g><g
       id="bullet-char-template(10132)"
       transform="matrix(4.8828125e-4,0,0,-4.8828125e-4,0,0)"><path
         d="M 2015,739 1276,0 H 717 l 543,543 H 174 v 393 h 1086 l -543,545 h 557 z"
         id="path476"
         inkscape:connector-curvature="0" /></g><g
       id="bullet-char-template(10007)"
       transform="matrix(4.8828125e-4,0,0,-4.8828125e-4,0,0)"><path
         d="m 0,-2 c -7,16 -16,29 -25,39 l 381,530 c -94,256 -141,385 -141,387 0,25 13,38 40,38 9,0 21,-2 34,-5 21,4 42,12 65,25 l 27,-13 111,-251 280,301 64,-25 24,25 c 21,-10 41,-24 62,-43 C 886,937 835,863 770,784 769,783 710,716 594,584 L 774,223 c 0,-27 -21,-55 -63,-84 l 16,-20 C 717,90 699,76 672,76 641,76 570,178 457,381 L 164,-76 c -22,-34 -53,-51 -92,-51 -42,0 -63,17 -64,51 -7,9 -10,24 -10,44 0,9 1,19 2,30 z"
         id="path479"
         inkscape:connector-curvature="0" /></g><g
       id="bullet-char-template(10004)"
       transform="matrix(4.8828125e-4,0,0,-4.8828125e-4,0,0)"><path
         d="M 285,-33 C 182,-33 111,30 74,156 52,228 41,333 41,471 c 0,78 14,145 41,201 34,71 87,106 158,106 53,0 88,-31 106,-94 l 23,-176 c 8,-64 28,-97 59,-98 l 735,706 c 11,11 33,17 66,17 42,0 63,-15 63,-46 V 965 c 0,-36 -10,-64 -30,-84 L 442,47 C 390,-6 338,-33 285,-33 Z"
         id="path482"
         inkscape:connector-curvature="0" /></g><g
       id="bullet-char-template(9679)"
       transform="matrix(4.8828125e-4,0,0,-4.8828125e-4,0,0)"><path
         d="M 813,0 C 632,0 489,54 383,161 276,268 223,411 223,592 c 0,181 53,324 160,431 106,107 249,161 430,161 179,0 323,-54 432,-161 108,-107 162,-251 162,-431 0,-180 -54,-324 -162,-431 C 1136,54 992,0 813,0 Z"
         id="path485"
         inkscape:connector-curvature="0" /></g><g
       id="bullet-char-template(8226)"
       transform="matrix(4.8828125e-4,0,0,-4.8828125e-4,0,0)"><path
         d="m 346,457 c -73,0 -137,26 -191,78 -54,51 -81,114 -81,188 0,73 27,136 81,188 54,52 118,78 191,78 73,0 134,-26 185,-79 51,-51 77,-114 77,-187 0,-75 -25,-137 -76,-188 -50,-52 -112,-78 -186,-78 z"
         id="path488"
         inkscape:connector-curvature="0" /></g><g
       id="bullet-char-template(8211)"
       transform="matrix(4.8828125e-4,0,0,-4.8828125e-4,0,0)"><path
         d="M -4,459 H 1135 V 606 H -4 Z"
         id="path491"
         inkscape:connector-curvature="0" /></g><g
       id="bullet-char-template(61548)"
       transform="matrix(4.8828125e-4,0,0,-4.8828125e-4,0,0)"><path
         d="m 173,740 c 0,163 58,303 173,419 116,115 255,173 419,173 163,0 302,-58 418,-173 116,-116 174,-256 174,-419 0,-163 -58,-303 -174,-418 C 1067,206 928,148 765,148 601,148 462,206 346,322 231,437 173,577 173,740 Z"
         id="path494"
         inkscape:connector-curvature="0" /></g></defs><defs
     class="TextEmbeddedBitmaps"
     id="defs499" /><g
     id="g504"
     transform="translate(-5556.889,-6319.889)"><g
       id="id2"
       class="Master_Slide"><g
         id="bg-id2"
         class="Background" /><g
         id="bo-id2"
         class="BackgroundObjects" /></g></g><g
     class="SlideGroup"
     id="g595"
     transform="translate(-5556.889,-6319.889)"><g
       id="g593"><g
         id="container-id1"><g
           id="id1"
           class="Slide"
           clip-path="url(#presentation_clip_path)"><g
             class="Page"
             id="g589"><g
               class="com.sun.star.drawing.CustomShape"
               id="g517"><g
                 id="id3"><rect
                   class="BoundingBox"
                   x="5570"
                   y="6333"
                   width="10799"
                   height="10672"
                   id="rect506"
                   style="fill:none;stroke:none" /><path
                   d="m 10968,6334 c 3060,0 5398,2310 5398,5334 0,3024 -2338,5334 -5398,5334 -3060,0 -5397,-2310 -5397,-5334 0,-3024 2337,-5334 5397,-5334 z m -5397,0 z m 10796,10669 z"
                   id="path508"
                   inkscape:connector-curvature="0"
                   style="fill:#adadad;stroke:none" /><path
                   d="m 10968,6334 c 3060,0 5398,2310 5398,5334 0,3024 -2338,5334 -5398,5334 -3060,0 -5397,-2310 -5397,-5334 0,-3024 2337,-5334 5397,-5334 z"
                   id="path510"
                   inkscape:connector-curvature="0"
                   style="fill:none;stroke:#adadad" /><path
                   d="M 5571,6334 Z"
                   id="path512"
                   inkscape:connector-curvature="0"
                   style="fill:none;stroke:#adadad" /><path
                   d="M 16367,17003 Z"
                   id="path514"
                   inkscape:connector-curvature="0"
                   style="fill:none;stroke:#adadad" /></g></g><g
               class="com.sun.star.drawing.CustomShape"
               id="g530"><g
                 id="id4"><rect
                   class="BoundingBox"
                   x="7345"
                   y="8237"
                   width="7370"
                   height="4703"
                   id="rect519"
                   style="fill:none;stroke:none" /><path
                   d="m 8129,8238 c -392,0 -783,391 -783,783 v 3133 c 0,392 391,784 783,784 h 5800 c 392,0 784,-392 784,-784 V 9021 c 0,-392 -392,-783 -784,-783 z m -783,0 z m 7367,4700 z"
                   id="path521"
                   inkscape:connector-curvature="0"
                   style="fill:#eeeeee;stroke:none" /><path
                   d="m 8129,8238 c -392,0 -783,391 -783,783 v 3133 c 0,392 391,784 783,784 h 5800 c 392,0 784,-392 784,-784 V 9021 c 0,-392 -392,-783 -784,-783 z"
                   id="path523"
                   inkscape:connector-curvature="0"
                   style="fill:none;stroke:#eeeeee" /><path
                   d="M 7346,8238 Z"
                   id="path525"
                   inkscape:connector-curvature="0"
                   style="fill:none;stroke:#eeeeee" /><path
                   d="M 14713,12938 Z"
                   id="path527"
                   inkscape:connector-curvature="0"
                   style="fill:none;stroke:#eeeeee" /></g></g><g
               class="com.sun.star.drawing.CustomShape"
               id="g539"><g
                 id="id5"><rect
                   class="BoundingBox"
                   x="10524"
                   y="12936"
                   width="1019"
                   height="1146"
                   id="rect532"
                   style="fill:none;stroke:none" /><path
                   d="m 11033,14080 h -508 v -1143 h 1016 v 1143 z"
                   id="path534"
                   inkscape:connector-curvature="0"
                   style="fill:#eeeeee;stroke:none" /><path
                   d="m 11033,14080 h -508 v -1143 h 1016 v 1143 z"
                   id="path536"
                   inkscape:connector-curvature="0"
                   style="fill:none;stroke:#eeeeee" /></g></g><g
               class="com.sun.star.drawing.PolyPolygonShape"
               id="g548"><g
                 id="id6"><rect
                   class="BoundingBox"
                   x="7857"
                   y="13953"
                   width="6480"
                   height="892"
                   id="rect541"
                   style="fill:none;stroke:none" /><path
                   d="m 7858,14843 508,-889 h 5461 l 508,889 z"
                   id="path543"
                   inkscape:connector-curvature="0"
                   style="fill:#eeeeee;stroke:none" /><path
                   d="m 7858,14843 508,-889 h 5461 l 508,889 z"
                   id="path545"
                   inkscape:connector-curvature="0"
                   style="fill:none;stroke:#eeeeee" /></g></g><g
               class="com.sun.star.drawing.CustomShape"
               id="g561"><g
                 id="id7"><rect
                   class="BoundingBox"
                   x="9381"
                   y="9126"
                   width="512"
                   height="1655"
                   id="rect550"
                   style="fill:none;stroke:none" /><path
                   d="m 9466,9127 c -42,0 -84,42 -84,84 v 1483 c 0,42 42,85 84,85 h 340 c 42,0 85,-43 85,-85 V 9211 c 0,-42 -43,-84 -85,-84 z m -84,0 z m 509,1652 z"
                   id="path552"
                   inkscape:connector-curvature="0"
                   style="fill:#adadad;stroke:none" /><path
                   d="m 9466,9127 c -42,0 -84,42 -84,84 v 1483 c 0,42 42,85 84,85 h 340 c 42,0 85,-43 85,-85 V 9211 c 0,-42 -43,-84 -85,-84 z"
                   id="path554"
                   inkscape:connector-curvature="0"
                   style="fill:none;stroke:#adadad" /><path
                   d="M 9382,9127 Z"
                   id="path556"
                   inkscape:connector-curvature="0"
                   style="fill:none;stroke:#adadad" /><path
                   d="M 9891,10779 Z"
                   id="path558"
                   inkscape:connector-curvature="0"
                   style="fill:none;stroke:#adadad" /></g></g><g
               class="com.sun.star.drawing.CustomShape"
               id="g574"><g
                 id="id8"><rect
                   class="BoundingBox"
                   x="12048"
                   y="9126"
                   width="512"
                   height="1655"
                   id="rect563"
                   style="fill:none;stroke:none" /><path
                   d="m 12133,9127 c -42,0 -84,42 -84,84 v 1483 c 0,42 42,85 84,85 h 340 c 42,0 85,-43 85,-85 V 9211 c 0,-42 -43,-84 -85,-84 z m -84,0 z m 509,1652 z"
                   id="path565"
                   inkscape:connector-curvature="0"
                   style="fill:#adadad;stroke:none" /><path
                   d="m 12133,9127 c -42,0 -84,42 -84,84 v 1483 c 0,42 42,85 84,85 h 340 c 42,0 85,-43 85,-85 V 9211 c 0,-42 -43,-84 -85,-84 z"
                   id="path567"
                   inkscape:connector-curvature="0"
                   style="fill:none;stroke:#adadad" /><path
                   d="M 12049,9127 Z"
                   id="path569"
                   inkscape:connector-curvature="0"
                   style="fill:none;stroke:#adadad" /><path
                   d="M 12558,10779 Z"
                   id="path571"
                   inkscape:connector-curvature="0"
                   style="fill:none;stroke:#adadad" /></g></g><g
               class="com.sun.star.drawing.CustomShape"
               id="g587"><g
                 id="id9"><rect
                   class="BoundingBox"
                   x="9253"
                   y="11412"
                   width="3433"
                   height="1909"
                   id="rect576"
                   style="fill:none;stroke:none" /><path
                   d="m 12384,11828 -51,-40 -55,-38 -58,-36 -62,-35 -64,-32 -68,-31 -70,-29 -73,-27 -76,-25 -77,-23 -80,-21 -81,-18 -83,-16 -84,-13 -85,-11 -86,-9 -87,-6 -88,-4 -87,-1 -88,1 -87,4 -87,6 -86,9 -86,11 -84,13 -83,16 -81,19 -79,20 -78,23 -75,25 -73,27 -71,29 -67,31 -65,33 -61,34 -59,37 -54,38 -52,39 186,71 45,-35 47,-33 51,-31 53,-30 56,-29 59,-27 61,-25 63,-24 66,-21 67,-20 69,-18 71,-16 72,-13 73,-12 74,-10 75,-7 75,-6 76,-3 76,-1 76,1 76,3 76,6 75,7 74,10 73,12 72,13 70,16 69,18 68,20 65,22 63,23 61,25 59,27 56,29 53,30 51,32 48,33 44,34 z m -3130,-415 z m 3430,1906 z"
                   id="path578"
                   inkscape:connector-curvature="0"
                   style="fill:#adadad;stroke:none" /><path
                   d="m 12384,11828 -51,-40 -55,-38 -58,-36 -62,-35 -64,-32 -68,-31 -70,-29 -73,-27 -76,-25 -77,-23 -80,-21 -81,-18 -83,-16 -84,-13 -85,-11 -86,-9 -87,-6 -88,-4 -87,-1 -88,1 -87,4 -87,6 -86,9 -86,11 -84,13 -83,16 -81,19 -79,20 -78,23 -75,25 -73,27 -71,29 -67,31 -65,33 -61,34 -59,37 -54,38 -52,39 186,71 45,-35 47,-33 51,-31 53,-30 56,-29 59,-27 61,-25 63,-24 66,-21 67,-20 69,-18 71,-16 72,-13 73,-12 74,-10 75,-7 75,-6 76,-3 76,-1 76,1 76,3 76,6 75,7 74,10 73,12 72,13 70,16 69,18 68,20 65,22 63,23 61,25 59,27 56,29 53,30 51,32 48,33 44,34 z"
                   id="path580"
                   inkscape:connector-curvature="0"
                   style="fill:none;stroke:#adadad" /><path
                   d="M 9254,11413 Z"
                   id="path582"
                   inkscape:connector-curvature="0"
                   style="fill:none;stroke:#adadad" /><path
                   d="M 12684,13319 Z"
                   id="path584"
                   inkscape:connector-curvature="0"
                   style="fill:none;stroke:#adadad" /></g></g></g></g></g></g></g></svg>